<?xml version="1.0" encoding="UTF-8"?>
<svg id="Layer_1" xmlns="http://www.w3.org/2000/svg" version="1.1" viewBox="0 0 576.53 307.32">
  <!-- Generator: Adobe Illustrator 29.6.1, SVG Export Plug-In . SVG Version: 2.1.1 Build 9)  -->
  <defs>
    <style>
      .st0 {
        fill: #141635;
      }

      .st1, .st2 {
        fill: #d89f29;
      }

      .st3, .st4 {
        fill: #fff;
      }

      .st5 {
        stroke: #000;
        stroke-miterlimit: 10;
      }

      .st6, .st7 {
        fill: #211d51;
      }

      .st8, .st9 {
        fill: #d89f2a;
      }

      .st10, .st4, .st11 {
        isolation: isolate;
      }

      .st9, .st12, .st2 {
        display: none;
      }

      .st4, .st11 {
        font-family: KomikaSlim, 'Komika Slim';
        font-size: 21px;
      }

      .st7 {
        stroke: #211d51;
        stroke-linecap: round;
        stroke-linejoin: round;
        stroke-width: 10px;
      }
    </style>
  </defs>
  <path class="st0" d="M94.16,88.84h217c4,0,7.24,3.85,7.24,8.61v99.32c0,31.74-58.22,48.35-115.73,48.35s-115.75-16.61-115.75-48.35v-99.32c0-4.76,3.24-8.61,7.24-8.61h0Z"/>
  <path class="st6" d="M4.91,70L195.65,5c4.54-1.52,9.46-1.52,14,0l190.76,65c3.78,1.3,5.8,5.41,4.5,9.2-.69,2-2.21,3.6-4.18,4.38l-190.11,75c-5.12,2.01-10.81,2.01-15.93,0L4.58,83.62c-3.73-1.43-5.59-5.61-4.16-9.34.78-2.03,2.43-3.6,4.49-4.28Z"/>
  <g id="Layer_2" class="st12">
    <path class="st8" d="M184.87,75.11l17.79-7.42s9.28,2.9,5.19,10.26-52.6,23.7-52.6,23.7l-25.02,10.72-25.24,10.83s-12.18,5.43-11.6,10.07-4.01,78.17-4.01,78.17c0,0,1.67,11.18,15.13,23.21s87.23,12.96,87.23,12.96l-.75,14.16-50.04-2.78s-22.69.79-31.77-5.08-23.91-19.26-23.91-19.26c0,0-5.66-10.95-5.66-26.78v-43.55l1.08-30.72s1.53-14.58,10.72-19.69,33.19-13.79,33.19-13.79l40.34-16.85,19.91-8.17h.02Z"/>
    <g>
      <path class="st8" d="M235.89,283.97c8.55,5.61,19.51,6.67,29.93,6.69,11.24.02,22.49-.98,33.48-3.18,12-2.4,23.63-6.21,35.54-8.97,15.48-3.58,31.35-5.35,47.21-6.79,30.68-2.79,61.68-4.39,92.26-.78s60.9,12.65,85.97,29.56c-10.77-29.07-37.79-51.33-68.55-61.59-10.21-3.41-20.82-5.62-31.39-7.82-40.3-8.39-81.27-16.84-122.44-14.16-20.94,1.36-41.55,5.59-62.06,9.81-13.82,2.84-41.32,5.49-49.41,18.31-7.66,12.14-2.44,31.13,9.46,38.93h0Z"/>
      <circle class="st8" cx="209.69" cy="256.2" r="21.55"/>
    </g>
    <path class="st9" d="M202.62,68.27l-30,11.6-33.3,13.66-19.12,8.12-22.47,9.53s-10.43,4.01-12.6,6.9-5.5,10.62-5.5,14.46v79.41s-.28,9.19,2.78,17.7,17.7,18.38,17.7,18.38c0,0,9.19,7.15,17.02,9.19,7.83,2.04,75.09,3.14,75.09,3.14l-.51-13.7-67.1-1.56s-20.09-7.97-24.17-14.44-8.51-12.43-8.51-12.43l-2.04-9.7,2.04-34.07v-27.89s0-12.26,2.72-16.34,23.49-13.62,23.49-13.62l35.74-13.96,40.63-16.12,15.13-8.6s.84-10.05-7.04-9.68l.02.02h0Z"/>
    <g>
      <path class="st3" d="M247.77,261.64c.02-.08.02-.22.02-.43v-.82c.05-.86.14-1.72.26-2.58.13-.86.27-1.72.42-2.58s.29-1.73.42-2.6.21-1.75.24-2.63v-.58c-.08-.14-.26-.26-.55-.36-.4.1-.75.17-1.04.22-.3.05-.58.08-.85.11-.27.02-.55.04-.83.05s-.59,0-.92,0h-1.13c-.3-.11-.47-.24-.5-.4-.03-.15-.05-.32-.05-.52.02-.24.05-.43.11-.58.06-.14.24-.27.54-.38.1,0,.28,0,.54-.04.26-.02.54-.05.83-.08s.57-.06.84-.1c.27-.03.47-.06.6-.1.22-.05.57-.12,1.04-.2.47-.09,1-.19,1.6-.31.59-.12,1.22-.24,1.88-.37s1.29-.25,1.88-.37c.59-.12,1.13-.23,1.61-.34.48-.1.83-.19,1.06-.25h1.63c.08,0,.16.03.23.1.07.06.13.14.18.24s.08.19.1.29.02.17.02.22c-.02.38-.15.67-.4.85-.25.18-.56.32-.94.42-.38.1-.78.16-1.22.2s-.86.1-1.27.17c-.41.07-.78.18-1.1.34-.33.15-.56.38-.68.68-.1,1.09-.22,2.14-.38,3.16s-.33,2.03-.52,3.04c-.18,1.01-.38,2.02-.6,3.02s-.44,2.05-.66,3.12c-.05.22-.1.43-.17.62-.06.19-.15.36-.26.49s-.26.24-.43.31c-.18.07-.41.11-.7.11-.27,0-.48-.08-.62-.23-.14-.15-.22-.36-.22-.61v-.29h0Z"/>
      <path class="st3" d="M266.95,261.28c0-.3,0-.65.01-1.03,0-.38.02-.79.02-1.22s.02-.84.02-1.22.01-.73.01-1.03v-.67c0-.06,0-.17-.01-.32,0-.15-.02-.31-.02-.47s-.02-.31-.02-.46c0-.14-.01-.24-.01-.29,0-.06-.04-.11-.11-.13-.07-.02-.16-.04-.25-.04h-.36c-.42,0-.85.05-1.3.16-.45.1-.9.23-1.34.37-.45.14-.88.29-1.28.43-.41.14-.76.26-1.07.34-.11.05-.22.1-.31.14-.1.05-.18.13-.26.24-.03.14-.06.34-.07.58-.02.24-.02.54-.02.89,0,.46-.02.97-.05,1.52s-.1,1.07-.2,1.55c-.1.48-.26.88-.48,1.2s-.5.48-.85.48c-.27,0-.5-.08-.68-.23-.18-.15-.27-.36-.25-.64l.24-4.7c0-.21-.1-.37-.29-.49s-.4-.23-.64-.34c-.23-.1-.44-.23-.62-.38-.18-.15-.26-.37-.23-.66.02-.24.1-.43.25-.56.15-.14.33-.25.53-.35s.41-.19.62-.29c.22-.1.4-.22.54-.38v-.43c0-.13,0-.28.02-.46.02-.18.03-.35.04-.52,0-.17.02-.32.04-.46s.02-.24.02-.3c0-.16.02-.42.05-.79s.07-.74.12-1.13c.05-.38.09-.74.12-1.07s.05-.54.05-.64c.02-.19.07-.4.16-.62s.2-.44.35-.64c.14-.2.32-.37.52-.5.2-.14.43-.2.68-.2.18,0,.32.04.44.13s.22.19.29.31.12.25.14.4c.02.14.03.27.01.38-.05.88-.16,1.73-.32,2.56-.17.82-.28,1.67-.32,2.53,0,.02,0,.1-.01.24,0,.14-.01.28-.01.41,0,.14.02.28.07.41.05.13.14.19.26.19.05,0,.16-.02.32-.05.17-.03.31-.06.42-.1l4.8-1.32c.32-.11.56-.37.72-.77.16-.4.29-.88.38-1.43.1-.55.18-1.13.25-1.74s.18-1.17.31-1.68c.14-.51.32-.94.56-1.27.24-.34.58-.5,1.03-.5s.72.1.88.31.22.5.2.86c-.03.34-.09.68-.18,1.04s-.18.72-.29,1.08c-.1.36-.2.72-.29,1.08s-.15.72-.18,1.07c-.02.16-.04.4-.08.73-.04.33-.08.67-.12,1.02s-.08.68-.11.97c-.03.3-.05.48-.05.54,0,.19-.02.5-.05.94-.03.43-.07.93-.12,1.49l-.07,1.78-.07,1.73c-.05.54-.08,1.03-.08,1.46s-.03.75-.06.96c-.08.46-.2.82-.37,1.08s-.53.38-1.09.38c-.59,0-.89-.27-.89-.82v-.67h-.01v.03h0Z"/>
      <path class="st3" d="M271.7,261.18l.05-.1s0-.04.01-.06c0-.02.01-.04.01-.06.02-.14.04-.35.08-.62s.08-.55.13-.83.1-.54.14-.78.1-.4.14-.48l.46-9c-.22-.37-.38-.66-.46-.89-.08-.22-.1-.52-.05-.89.03-.27.08-.5.16-.67.07-.18.29-.34.66-.48,1.31-.43,2.62-.74,3.91-.94,1.3-.19,2.63-.29,4.01-.29h.6c.08-.02.16-.02.24-.02h.98c.34,0,.68.02,1.04.06.36.04.68.11.97.22.29.1.52.26.7.46.18.2.25.46.24.78,0,.21-.1.38-.31.5-.21.13-.42.2-.62.22-.22,0-.59,0-1.09.04-.5.02-1.06.05-1.67.08-.56.03-1.08.05-1.56.06h-1.03c-.75.05-1.39.12-1.92.2-.53.09-.96.25-1.31.49-.34.24-.6.58-.77,1.02-.17.44-.28,1.02-.32,1.74l-.02.14c0,.06,0,.11.01.14s.01.07.01.12l-.02.41.02.02c.18.18.41.28.71.32.3.04.6.06.9.06h.43c.64,0,1.28-.03,1.91-.08.63-.06,1.28-.12,1.93-.2.64-.08,1.27-.15,1.9-.22.62-.06,1.26-.1,1.9-.1.69,0,1.02.31,1.01.94-.03.32-.25.58-.66.78s-.93.35-1.57.46c-.64.1-1.35.18-2.12.23-.78.05-1.54.08-2.29.1-.53.03-1.03.06-1.5.08s-.9.06-1.27.11c-.38.05-.69.11-.94.18s-.42.17-.52.3v.02c-.06.5-.12.93-.16,1.3s-.08.72-.11,1.04c-.03.33-.06.66-.1,1s-.06.71-.07,1.13l-.02,1.15v.02c.11.08.18.14.22.19.03.05.1.07.22.07h.43c1.2,0,2.39-.2,3.58-.6,1.18-.4,2.28-.88,3.29-1.44.11-.05.22-.1.34-.16.11-.06.21-.12.29-.2.3-.19.6-.36.9-.49s.59-.2.88-.2c.37,0,.61.09.73.26.12.18.17.41.16.7-.02.42-.26.81-.72,1.18s-1.04.71-1.74,1.03c-.7.32-1.47.6-2.32.85s-1.66.46-2.44.64c-.78.18-1.48.31-2.1.41s-1.06.14-1.32.14h-.86c-.27,0-.55-.01-.83-.04-.28-.02-.54-.08-.77-.17-.23-.09-.42-.22-.55-.4s-.19-.42-.16-.74v-.24h-.01Z"/>
      <path class="st3" d="M294.4,257.21c.13-.74.28-1.5.46-2.27.02-.06.03-.12.05-.16.02-.04.02-.08.02-.11v-.02c.18-.74.33-1.47.46-2.2s.22-1.48.26-2.24l.02-.36v-1.58c-.18-.37-.28-.67-.31-.9s-.02-.51.02-.83c.05-.8.53-1.33,1.44-1.58h.36s.11-.02.19-.05c.4-.02.9-.04,1.5-.06s1.2-.05,1.8-.08,1.16-.06,1.67-.08.88-.05,1.1-.08h.34c.34,0,.75,0,1.24.04.49.02.96.09,1.4.2.45.11.82.28,1.12.49.3.22.44.52.42.92-.02.3-.12.55-.3.73s-.46.28-.83.28c-.29,0-.58-.02-.89-.05s-.61-.07-.91-.12c-.02-.02-.07-.02-.17-.02-.05,0-.09,0-.12-.02-.26-.05-.5-.08-.74-.1s-.51-.02-.82-.02h-.46c-.08,0-.16,0-.25-.02s-.17-.03-.25-.05c-.11-.02-.22-.02-.31-.02h-.82c-.67,0-1.2.09-1.58.26-.24.13-.44.5-.6,1.13-.16.62-.26,1.34-.31,2.16l-.02.41s0,.08.01.11c0,.02,0,.06-.01.11l-.02.55.02.14v.02c.06.13.17.24.32.32s.33.16.53.2.41.08.64.1c.22.02.45.02.67.02h.77c.26,0,.5,0,.73-.02s.46-.04.68-.07h.38c.3-.02.59-.03.86-.05s.56-.02.86-.02c.19,0,.39.02.59.07.2.05.38.12.54.2.16.09.29.2.38.35s.14.31.14.5c0,.08-.03.19-.08.32-.06.14-.13.27-.22.4-.09.13-.19.24-.31.34-.12.1-.24.14-.35.14h-5.9c-.42,0-.78.02-1.08.05s-.57.14-.79.31c-.18.18-.32.42-.44.74s-.22.66-.31,1.03-.16.74-.2,1.1c-.05.37-.1.68-.14.94v.02s0,.08-.01.08c0,0-.01.04-.01.08v.12c-.02.11-.04.33-.08.65-.04.32-.08.66-.13,1.01-.05.35-.09.68-.12,1-.03.31-.05.52-.05.61-.06.34-.3.5-.7.5s-.69-.12-.92-.36-.4-.53-.5-.88c-.1-.34-.17-.71-.19-1.09s-.02-.72.01-1.01c.05-.74.14-1.48.26-2.22h0Z"/>
      <path class="st3" d="M308.23,261.61c.03-.1.05-.19.05-.29v-.55c0-.1,0-.18.02-.26v-.36c.06-1.15.16-2.31.3-3.48s.28-2.33.44-3.49.31-2.32.44-3.48c.14-1.16.24-2.32.3-3.47.18-.27.33-.46.47-.55s.32-.14.54-.14c.24,0,.44.05.61.16.17.1.3.24.41.4.1.16.18.34.23.54s.07.39.07.56l-.05.53c0,.21,0,.45-.01.72,0,.27-.02.51-.04.72l-.05.53c-.11,2.06-.27,4.08-.48,6.06-.21,1.98-.49,4-.84,6.06-.05.29-.18.52-.41.7-.22.18-.5.26-.82.26-.37,0-.64-.04-.82-.13s-.3-.32-.38-.68v-.34l.02-.02h0Z"/>
      <path class="st3" d="M312.64,261.49c.02-.08.02-.17.02-.26v-.89l.05-.36.02-.48c.02-.18.03-.36.04-.56,0-.2.01-.39.01-.56l.05-.29c.02-.13.06-.4.12-.8.06-.41.14-.89.22-1.45.08-.56.16-1.15.25-1.78s.17-1.22.25-1.78.15-1.05.22-1.46c.06-.42.1-.69.12-.82.05-.37.06-.7.05-1.01-.02-.3.06-.62.24-.96.06-.13.27-.26.61-.38.34-.13.76-.25,1.26-.37s1.04-.23,1.62-.34c.58-.1,1.15-.19,1.7-.26s1.05-.13,1.49-.18c.44-.05.77-.07,1-.07.34,0,.73.02,1.18.06.45.04.88.12,1.3.23.42.11.78.28,1.1.49.32.22.52.49.6.83v.24c-.02.11-.02.21-.01.3,0,.09,0,.2-.01.32v.22c-.05.74-.23,1.37-.54,1.91-.31.54-.76,1.09-1.33,1.67-.93.74-1.86,1.44-2.81,2.11-.94.67-1.86,1.38-2.74,2.11,0,.02,0,.05-.01.1,0,.05-.01.09-.01.12-.02.37.12.69.4.96s.64.51,1.07.72.9.4,1.4.56c.5.17.98.34,1.42.5.44.17.81.35,1.1.55s.44.44.44.71c-.03.14-.11.26-.23.35s-.26.15-.43.18-.34.05-.52.06-.32.01-.43.01c-.74,0-1.41-.09-2.03-.28-.62-.18-1.19-.43-1.72-.74s-1.03-.67-1.5-1.07-.93-.82-1.38-1.25c-.11-.06-.2-.1-.28-.11-.07,0-.16-.01-.28-.01-.19,0-.32.04-.38.12-.03.13-.07.35-.12.67s-.1.65-.16,1c-.06.34-.11.68-.17,1-.06.32-.09.54-.11.67-.05.32-.13.57-.24.76-.11.18-.38.28-.79.28-.37,0-.62-.09-.77-.26-.14-.18-.27-.39-.38-.65l.02-.36v-.02h.01ZM315.88,255.52s.08.05.1.05c.22,0,.56-.13,1-.38.44-.26.93-.59,1.46-1,.54-.41,1.08-.86,1.64-1.36.56-.5,1.07-.98,1.52-1.46.46-.48.83-.92,1.13-1.31.3-.39.44-.69.44-.9,0-.13,0-.24-.02-.32-.02-.09-.11-.16-.29-.2h-.84c-1.46,0-2.59.08-3.41.25s-1.42.47-1.82.9-.66,1.02-.77,1.75c-.11.74-.2,1.67-.26,2.81v.22c-.02.11-.02.22-.01.32,0,.1,0,.21-.01.32v.22c.03.08.08.12.14.12h0v-.03Z"/>
      <path class="st3" d="M326.97,257.51c.19-.22.51-.34.96-.34.03,0,.1,0,.22.02.11.02.19.02.24.02.34.38.7.75,1.1,1.1s.83.67,1.3.94c.46.27.96.49,1.48.65.52.16,1.08.24,1.67.24.3,0,.68-.05,1.12-.16.44-.1.9-.25,1.39-.43.49-.18.98-.4,1.48-.64.5-.24.94-.5,1.33-.79.39-.29.72-.58.97-.89.26-.3.39-.61.41-.91.02-.35-.09-.68-.31-.97-.22-.3-.51-.56-.86-.78-.35-.22-.72-.4-1.12-.54-.39-.14-.73-.22-1.02-.25l-6.55-.7c-.38-.02-.76-.08-1.12-.18-.36-.1-.68-.25-.97-.44s-.52-.42-.68-.7c-.17-.27-.24-.59-.2-.96.02-.54.22-1.08.62-1.61s.91-1.02,1.54-1.49,1.32-.89,2.1-1.27,1.56-.72,2.34-1,1.54-.5,2.26-.65,1.34-.23,1.85-.23c.34,0,.68.07,1.02.2.34.14.65.31.91.53s.48.47.64.77.23.6.22.9c0,.26-.06.47-.19.65s-.34.26-.65.26c-.22,0-.44-.03-.65-.08-.21-.06-.42-.12-.62-.18-.21-.06-.42-.12-.64-.18s-.44-.08-.68-.08c-.62,0-1.24.08-1.84.24s-1.18.38-1.73.65c-.55.27-1.08.58-1.58.94-.5.35-.97.73-1.4,1.13,0,.03-.02.1-.07.19,0,.18.08.29.25.35.17.06.34.11.52.16l5.06.29c.67.06,1.38.2,2.11.42.74.22,1.41.51,2.02.89s1.1.84,1.49,1.38.57,1.18.55,1.9c-.06.99-.4,1.91-1,2.76s-1.34,1.58-2.23,2.18c-.89.61-1.87,1.08-2.95,1.43-1.08.34-2.13.52-3.16.52-.42,0-.89-.04-1.42-.12s-1.06-.2-1.61-.37-1.08-.37-1.6-.61c-.52-.24-.98-.52-1.38-.84s-.72-.68-.95-1.08-.33-.84-.3-1.32c.03-.38.14-.69.34-.91h-.03Z"/>
      <path class="st3" d="M349.17,256.15c.11-.73.23-1.45.36-2.16.13-.71.25-1.43.37-2.15s.21-1.44.28-2.16v-.84c0-.11-.04-.17-.11-.18h-.2c-.37,0-.73.04-1.09.13-.36.09-.72.19-1.08.3s-.72.21-1.08.3-.72.13-1.09.13h-.96c-.37-.13-.62-.29-.74-.48-.13-.19-.18-.44-.17-.74,0-.14.18-.31.55-.49.37-.18.86-.38,1.46-.59.61-.21,1.3-.42,2.09-.65.78-.22,1.6-.44,2.45-.64s1.69-.39,2.53-.58c.84-.18,1.62-.34,2.33-.48s1.33-.24,1.85-.32c.52-.08.88-.12,1.09-.12s.45,0,.68.04c.23.02.44.07.62.14.18.07.33.19.43.35s.15.37.13.62c-.02.37-.15.65-.4.84s-.56.33-.95.42c-.38.09-.8.14-1.26.17-.46.02-.91.05-1.36.08-.45.03-.87.09-1.26.18s-.7.24-.92.44c-.21.19-.4.52-.59.97s-.36.99-.52,1.6-.3,1.25-.43,1.93-.24,1.34-.34,1.98-.17,1.22-.22,1.75-.07.93-.07,1.2c-.03.4-.03.79.01,1.16.04.38.08.76.13,1.14.05.38.1.76.14,1.14s.06.76.05,1.16c-.02.34-.11.59-.28.76s-.44.25-.83.25c-.46,0-.83-.12-1.09-.35s-.46-.53-.58-.89c-.12-.36-.19-.76-.22-1.19-.02-.43-.02-.84.01-1.22l.02-.74c.03-.75.1-1.49.22-2.22l.04.02h0Z"/>
      <path class="st3" d="M367.17,257.01c.35,0,.63.09.83.28.2.18.37.41.5.67.14.26.27.56.41.88s.32.61.55.88c.23.26.55.49.95.67s.93.28,1.58.28c1.41,0,2.52-.33,3.32-1,.81-.66,1.24-1.64,1.31-2.94.03-.59-.08-1.08-.34-1.48-.26-.39-.6-.72-1.04-.98s-.95-.48-1.52-.66-1.16-.34-1.76-.48-1.18-.29-1.75-.43-1.08-.32-1.52-.54c-.45-.22-.8-.48-1.07-.79-.26-.31-.38-.7-.35-1.16.02-.45.16-.9.44-1.37.28-.46.64-.92,1.09-1.36.45-.44.95-.86,1.51-1.25s1.14-.74,1.73-1.03,1.17-.53,1.73-.7,1.07-.25,1.54-.25c.34,0,.69.06,1.07.18s.72.28,1.03.49.56.46.74.76c.18.3.27.62.25.97-.02.26-.11.48-.28.66s-.4.28-.68.28c-.22,0-.43-.04-.62-.11s-.38-.15-.56-.24c-.18-.09-.38-.17-.58-.24-.2-.07-.43-.11-.68-.11-.5,0-.96.07-1.39.2-.43.14-.84.32-1.24.55-.39.23-.76.5-1.12.79-.35.3-.7.6-1.03.92,0,.02,0,.06-.01.14,0,.08-.01.14-.01.19-.02.27.2.51.65.72.45.21,1.01.42,1.69.62.68.21,1.42.44,2.21.68s1.52.55,2.2.91c.67.36,1.22.8,1.66,1.31.43.51.62,1.14.58,1.87-.03.93-.21,1.81-.53,2.65s-.78,1.58-1.37,2.22-1.32,1.15-2.17,1.52c-.86.38-1.84.56-2.96.56-.85,0-1.65-.08-2.41-.25s-1.43-.44-2-.8-1.02-.85-1.34-1.44-.46-1.31-.43-2.16c0-.74.41-1.1,1.22-1.1l-.03.02h0Z"/>
      <path class="st3" d="M379.99,261.18l.05-.1s0-.04.01-.06c0-.02.01-.04.01-.06.02-.14.04-.35.08-.62s.08-.55.13-.83.1-.54.14-.78c.05-.24.1-.4.14-.48l.46-9c-.22-.37-.38-.66-.46-.89-.08-.22-.1-.52-.05-.89.03-.27.08-.5.16-.67.07-.18.29-.34.66-.48,1.31-.43,2.62-.74,3.91-.94s2.63-.29,4.01-.29h.6c.08-.02.16-.02.24-.02h.98c.34,0,.68.02,1.04.06.36.04.68.11.97.22.29.1.52.26.7.46.18.2.26.46.24.78,0,.21-.1.38-.31.5-.21.13-.42.2-.62.22-.22,0-.59,0-1.09.04-.5.02-1.06.05-1.67.08-.56.03-1.08.05-1.56.06h-1.03c-.75.05-1.39.12-1.92.2s-.96.25-1.31.49c-.34.24-.6.58-.77,1.02-.17.44-.28,1.02-.32,1.74l-.02.14c0,.06,0,.11.01.14s.01.07.01.12l-.02.41.02.02c.18.18.41.28.71.32s.6.06.9.06h.43c.64,0,1.28-.03,1.91-.08.63-.06,1.28-.12,1.93-.2.64-.08,1.27-.15,1.9-.22.62-.06,1.26-.1,1.9-.1.69,0,1.02.31,1.01.94-.03.32-.25.58-.66.78s-.93.35-1.57.46c-.64.1-1.35.18-2.12.23-.78.05-1.54.08-2.29.1-.53.03-1.03.06-1.5.08s-.9.06-1.27.11c-.38.05-.69.11-.94.18s-.42.17-.52.3v.02c-.06.5-.12.93-.16,1.3s-.08.72-.11,1.04-.06.66-.1,1-.06.71-.07,1.13l-.02,1.15v.02c.11.08.18.14.22.19.03.05.1.07.22.07h.43c1.2,0,2.39-.2,3.58-.6,1.18-.4,2.28-.88,3.29-1.44.11-.05.22-.1.34-.16.11-.06.21-.12.29-.2.3-.19.6-.36.9-.49s.59-.2.88-.2c.37,0,.61.09.73.26.12.18.17.41.16.7-.02.42-.26.81-.72,1.18s-1.04.71-1.74,1.03c-.7.32-1.47.6-2.32.85s-1.66.46-2.44.64-1.48.31-2.1.41-1.06.14-1.32.14h-.86c-.27,0-.55-.01-.83-.04-.28-.02-.54-.08-.77-.17-.23-.09-.42-.22-.55-.4-.14-.18-.19-.42-.16-.74v-.24h-.01Z"/>
      <path class="st3" d="M394.55,262.07c.03-.11.04-.22.02-.31s0-.18.02-.24v-.22l.02-.24c0-.13,0-.24.01-.32,0-.09.03-.19.06-.3v-.1s.02-.18.07-.4c.05-.22.1-.45.17-.7.06-.25.12-.48.17-.7s.07-.35.07-.4c.03-.14.08-.43.14-.86.06-.43.14-.94.24-1.54s.2-1.22.3-1.9.2-1.3.29-1.9.17-1.11.24-1.56c.07-.45.12-.74.13-.89,0-.1.03-.29.1-.59.06-.3.14-.62.22-.96s.16-.68.24-1.01.14-.57.17-.73c.08-.3.22-.55.41-.73s.46-.28.79-.28c.18,0,.34.02.49.05s.27.14.35.31v1.25c0,.26,0,.5.01.73,0,.23.02.39.04.47,0,.14.01.34.04.59.02.25.05.5.07.77s.05.5.07.72c.02.22.04.35.04.4s.04.22.11.52.16.64.25,1.02c.1.38.2.76.3,1.14.1.38.19.67.25.88,0,.02.02.1.05.26.03.16.08.34.16.53.07.19.16.36.25.52.1.15.21.23.34.23.1,0,.19-.04.28-.12s.17-.18.24-.29c.07-.11.14-.23.19-.35.06-.12.1-.21.13-.28.11-.21.28-.51.49-.91.22-.4.43-.8.65-1.2s.41-.76.58-1.08c.17-.32.26-.5.28-.55.06-.08.18-.3.34-.65.16-.35.33-.73.52-1.14.18-.41.35-.79.5-1.15s.25-.59.3-.68c.06-.11.15-.29.26-.53.11-.24.24-.48.4-.71.15-.23.32-.44.52-.61.19-.18.4-.26.62-.26.62,0,1.02.27,1.2.82l-.07.74c-.02.18-.02.36-.02.55v1.13c0,.18-.02.35-.05.53l-.05.72c-.05,1.01-.1,2.01-.14,3.01-.05,1-.11,2-.18,2.99s-.17,1.98-.3,2.95c-.13.98-.3,1.95-.53,2.93-.18.18-.35.34-.53.48s-.38.22-.62.22c-.3,0-.54-.11-.72-.34l.1-1.34c.03-.83.1-1.65.19-2.46s.16-1.62.19-2.44l.05-.31s0-.14-.01-.29c0-.14-.02-.3-.04-.46-.02-.16-.03-.31-.04-.44,0-.14-.01-.23-.01-.28-.02,0-.05-.02-.1-.05-.18,0-.36.14-.55.43s-.4.64-.62,1.07c-.22.42-.47.89-.73,1.39s-.55.97-.85,1.39c-.3.42-.63.78-.98,1.07s-.74.43-1.15.43c-.34,0-.61-.11-.83-.34-.22-.22-.4-.5-.54-.83s-.27-.68-.37-1.07c-.1-.38-.2-.74-.3-1.07-.1-.33-.21-.6-.34-.83-.13-.22-.28-.34-.46-.34h-.07s-.05.09-.11.22-.09.23-.11.31c-.27,1.06-.5,2.12-.7,3.18-.19,1.06-.38,2.12-.55,3.18-.08.24-.24.44-.47.59s-.48.23-.76.23c-.18,0-.33-.06-.46-.17-.13-.11-.25-.22-.36-.34v-.19.03h-.01Z"/>
      <path class="st3" d="M409.34,261.18l.05-.1s0-.04.01-.06c0-.02.01-.04.01-.06.02-.14.04-.35.08-.62s.08-.55.13-.83.1-.54.14-.78c.05-.24.1-.4.14-.48l.46-9c-.22-.37-.38-.66-.46-.89-.08-.22-.1-.52-.05-.89.03-.27.08-.5.16-.67.07-.18.29-.34.66-.48,1.31-.43,2.62-.74,3.91-.94s2.63-.29,4.01-.29h.6c.08-.02.16-.02.24-.02h.98c.34,0,.68.02,1.04.06.36.04.68.11.97.22.29.1.52.26.7.46.18.2.26.46.24.78,0,.21-.1.38-.31.5-.21.13-.42.2-.62.22-.22,0-.59,0-1.09.04-.5.02-1.06.05-1.67.08-.56.03-1.08.05-1.56.06h-1.03c-.75.05-1.39.12-1.92.2s-.96.25-1.31.49c-.34.24-.6.58-.77,1.02-.17.44-.28,1.02-.32,1.74l-.02.14c0,.06,0,.11.01.14s.01.07.01.12l-.02.41.02.02c.18.18.41.28.71.32s.6.06.9.06h.43c.64,0,1.28-.03,1.91-.08.63-.06,1.28-.12,1.93-.2.64-.08,1.27-.15,1.9-.22.62-.06,1.26-.1,1.9-.1.69,0,1.02.31,1.01.94-.03.32-.25.58-.66.78s-.93.35-1.57.46c-.64.1-1.35.18-2.12.23-.78.05-1.54.08-2.29.1-.53.03-1.03.06-1.5.08s-.9.06-1.27.11c-.38.05-.69.11-.94.18s-.42.17-.52.3v.02c-.06.5-.12.93-.16,1.3s-.08.72-.11,1.04-.06.66-.1,1-.06.71-.07,1.13l-.02,1.15v.02c.11.08.18.14.22.19.03.05.1.07.22.07h.43c1.2,0,2.39-.2,3.58-.6,1.18-.4,2.28-.88,3.29-1.44.11-.05.22-.1.34-.16.11-.06.21-.12.29-.2.3-.19.6-.36.9-.49s.59-.2.88-.2c.37,0,.61.09.73.26.12.18.17.41.16.7-.02.42-.26.81-.72,1.18s-1.04.71-1.74,1.03c-.7.32-1.47.6-2.32.85s-1.66.46-2.44.64-1.48.31-2.1.41-1.06.14-1.32.14h-.86c-.27,0-.55-.01-.83-.04-.28-.02-.54-.08-.77-.17-.23-.09-.42-.22-.55-.4-.14-.18-.19-.42-.16-.74v-.24h-.01Z"/>
      <path class="st3" d="M424.34,257.51c.19-.22.51-.34.96-.34.03,0,.1,0,.22.02.11.02.19.02.24.02.34.38.7.75,1.1,1.1s.83.67,1.3.94c.46.27.96.49,1.48.65.52.16,1.08.24,1.67.24.3,0,.68-.05,1.12-.16.44-.1.9-.25,1.39-.43.49-.18.98-.4,1.48-.64.5-.24.94-.5,1.33-.79.39-.29.72-.58.97-.89.26-.3.39-.61.41-.91.02-.35-.09-.68-.31-.97-.22-.3-.51-.56-.86-.78-.35-.22-.72-.4-1.12-.54-.39-.14-.73-.22-1.02-.25l-6.55-.7c-.38-.02-.76-.08-1.12-.18-.36-.1-.68-.25-.97-.44s-.52-.42-.68-.7c-.17-.27-.24-.59-.2-.96.02-.54.22-1.08.62-1.61s.91-1.02,1.54-1.49,1.32-.89,2.1-1.27,1.56-.72,2.34-1,1.54-.5,2.26-.65,1.34-.23,1.85-.23c.34,0,.68.07,1.02.2.34.14.65.31.91.53s.48.47.64.77.23.6.22.9c0,.26-.06.47-.19.65s-.34.26-.65.26c-.22,0-.44-.03-.65-.08-.21-.06-.42-.12-.62-.18-.21-.06-.42-.12-.64-.18s-.44-.08-.68-.08c-.62,0-1.24.08-1.84.24s-1.18.38-1.73.65c-.55.27-1.08.58-1.58.94-.5.35-.97.73-1.4,1.13,0,.03-.02.1-.07.19,0,.18.08.29.25.35.17.06.34.11.52.16l5.06.29c.67.06,1.38.2,2.11.42.74.22,1.41.51,2.02.89s1.1.84,1.49,1.38.57,1.18.55,1.9c-.06.99-.4,1.91-1,2.76s-1.34,1.58-2.23,2.18c-.89.61-1.87,1.08-2.95,1.43-1.08.34-2.13.52-3.16.52-.42,0-.89-.04-1.42-.12s-1.06-.2-1.61-.37-1.08-.37-1.6-.61c-.52-.24-.98-.52-1.38-.84s-.72-.68-.95-1.08-.33-.84-.3-1.32c.03-.38.14-.69.34-.91h-.03Z"/>
      <path class="st3" d="M446.54,256.15c.11-.73.23-1.45.36-2.16.13-.71.25-1.43.37-2.15s.21-1.44.28-2.16v-.84c0-.11-.04-.17-.11-.18h-.2c-.37,0-.73.04-1.09.13-.36.09-.72.19-1.08.3s-.72.21-1.08.3-.72.13-1.09.13h-.96c-.37-.13-.62-.29-.74-.48-.13-.19-.18-.44-.17-.74,0-.14.18-.31.55-.49.37-.18.86-.38,1.46-.59.61-.21,1.3-.42,2.09-.65.78-.22,1.6-.44,2.45-.64s1.69-.39,2.53-.58c.84-.18,1.62-.34,2.33-.48s1.33-.24,1.85-.32c.52-.08.88-.12,1.09-.12s.45,0,.68.04c.23.02.44.07.62.14.18.07.33.19.43.35s.15.37.13.62c-.02.37-.15.65-.4.84s-.56.33-.95.42c-.38.09-.8.14-1.26.17-.46.02-.91.05-1.36.08-.45.03-.87.09-1.26.18s-.7.24-.92.44c-.21.19-.4.52-.59.97s-.36.99-.52,1.6-.3,1.25-.43,1.93-.24,1.34-.34,1.98-.17,1.22-.22,1.75-.07.93-.07,1.2c-.03.4-.03.79.01,1.16.04.38.08.76.13,1.14.05.38.1.76.14,1.14s.06.76.05,1.16c-.02.34-.11.59-.28.76s-.44.25-.83.25c-.46,0-.83-.12-1.09-.35s-.46-.53-.58-.89c-.12-.36-.19-.76-.22-1.19-.02-.43-.02-.84.01-1.22l.02-.74c.03-.75.1-1.49.22-2.22l.04.02h0Z"/>
      <path class="st3" d="M455.54,261.18l.05-.1s0-.04.01-.06c0-.02.01-.04.01-.06.02-.14.04-.35.08-.62s.08-.55.13-.83.1-.54.14-.78c.05-.24.1-.4.14-.48l.46-9c-.22-.37-.38-.66-.46-.89-.08-.22-.1-.52-.05-.89.03-.27.08-.5.16-.67.07-.18.29-.34.66-.48,1.31-.43,2.62-.74,3.91-.94s2.63-.29,4.01-.29h.6c.08-.02.16-.02.24-.02h.98c.34,0,.68.02,1.04.06.36.04.68.11.97.22.29.1.52.26.7.46.18.2.26.46.24.78,0,.21-.1.38-.31.5-.21.13-.42.2-.62.22-.22,0-.59,0-1.09.04-.5.02-1.06.05-1.67.08-.56.03-1.08.05-1.56.06h-1.03c-.75.05-1.39.12-1.92.2s-.96.25-1.31.49c-.34.24-.6.58-.77,1.02-.17.44-.28,1.02-.32,1.74l-.02.14c0,.06,0,.11.01.14s.01.07.01.12l-.02.41.02.02c.18.18.41.28.71.32s.6.06.9.06h.43c.64,0,1.28-.03,1.91-.08.63-.06,1.28-.12,1.93-.2.64-.08,1.27-.15,1.9-.22.62-.06,1.26-.1,1.9-.1.69,0,1.02.31,1.01.94-.03.32-.25.58-.66.78s-.93.35-1.57.46c-.64.1-1.35.18-2.12.23-.78.05-1.54.08-2.29.1-.53.03-1.03.06-1.5.08s-.9.06-1.27.11c-.38.05-.69.11-.94.18s-.42.17-.52.3v.02c-.06.5-.12.93-.16,1.3s-.08.72-.11,1.04-.06.66-.1,1-.06.71-.07,1.13l-.02,1.15v.02c.11.08.18.14.22.19.03.05.1.07.22.07h.43c1.2,0,2.39-.2,3.58-.6,1.18-.4,2.28-.88,3.29-1.44.11-.05.22-.1.34-.16.11-.06.21-.12.29-.2.3-.19.6-.36.9-.49s.59-.2.88-.2c.37,0,.61.09.73.26.12.18.17.41.16.7-.02.42-.26.81-.72,1.18s-1.04.71-1.74,1.03c-.7.32-1.47.6-2.32.85s-1.66.46-2.44.64-1.48.31-2.1.41-1.06.14-1.32.14h-.86c-.27,0-.55-.01-.83-.04-.28-.02-.54-.08-.77-.17-.23-.09-.42-.22-.55-.4-.14-.18-.19-.42-.16-.74v-.24h-.01Z"/>
      <path class="st3" d="M470.18,261.49c.02-.08.02-.17.02-.26v-.89l.05-.36.02-.48c.02-.18.03-.36.04-.56,0-.2.01-.39.01-.56l.05-.29c.02-.13.06-.4.12-.8.06-.41.14-.89.22-1.45.08-.56.16-1.15.25-1.78s.17-1.22.25-1.78.15-1.05.22-1.46c.06-.42.1-.69.12-.82.05-.37.06-.7.05-1.01-.02-.3.06-.62.24-.96.06-.13.27-.26.61-.38.34-.13.76-.25,1.26-.37s1.04-.23,1.62-.34c.58-.1,1.15-.19,1.7-.26s1.05-.13,1.49-.18c.44-.05.77-.07,1-.07.34,0,.73.02,1.18.06.45.04.88.12,1.3.23.42.11.78.28,1.1.49.32.22.52.49.6.83v.24c-.02.11-.02.21-.01.3,0,.09,0,.2-.01.32v.22c-.05.74-.23,1.37-.54,1.91-.31.54-.76,1.09-1.33,1.67-.93.74-1.86,1.44-2.81,2.11-.94.67-1.86,1.38-2.74,2.11,0,.02,0,.05-.01.1,0,.05-.01.09-.01.12-.02.37.12.69.4.96s.64.51,1.07.72.9.4,1.4.56c.5.17.98.34,1.42.5.44.17.81.35,1.1.55s.44.44.44.71c-.03.14-.11.26-.23.35s-.26.15-.43.18-.34.05-.52.06-.32.01-.43.01c-.74,0-1.41-.09-2.03-.28-.62-.18-1.19-.43-1.72-.74s-1.03-.67-1.5-1.07-.93-.82-1.38-1.25c-.11-.06-.2-.1-.28-.11-.07,0-.16-.01-.28-.01-.19,0-.32.04-.38.12-.03.13-.07.35-.12.67s-.1.65-.16,1c-.06.34-.11.68-.17,1-.06.32-.09.54-.11.67-.05.32-.13.57-.24.76-.11.18-.38.28-.79.28-.37,0-.62-.09-.77-.26-.14-.18-.27-.39-.38-.65l.02-.36v-.02h.01ZM473.42,255.52s.08.05.1.05c.22,0,.56-.13,1-.38.44-.26.93-.59,1.46-1,.54-.41,1.08-.86,1.64-1.36.56-.5,1.07-.98,1.52-1.46.46-.48.83-.92,1.13-1.31.3-.39.44-.69.44-.9,0-.13,0-.24-.02-.32-.02-.09-.11-.16-.29-.2h-.84c-1.46,0-2.59.08-3.41.25s-1.42.47-1.82.9-.66,1.02-.77,1.75c-.11.74-.2,1.67-.26,2.81v.22c-.02.11-.02.22-.01.32,0,.1,0,.21-.01.32v.22c.03.08.08.12.14.12h0v-.03Z"/>
    </g>
  </g>
  <path class="st1" d="M512.12,251.42l.02-.02c-6.11-3.85-12.58-7.04-19.38-9.5-1.08-.39-2.28-.83-3.51-1.19-21.23-8.95-44.24-13.58-67.33-14.38-17.17-.6-34.42.92-51.28,4.23-19.28,3.78-38.24,10.18-57.99,11.15-22.08,1.08-43.5-7.3-65.57-3.53-.57.1-1.05.27-1.48.49-2.34.57-4.38,2.17-5.73,4.16-.8,1.18-.87,2.74-.4,4.11.04.41.09.82.16,1.22-1.4,1.43-2.06,3.59-.91,5.86,7.37,14.58,27.28,19.57,42.14,21.1,8.26.85,16.52.59,24.75-.14,7.69-.16,15.39-.86,23.01-1.91,19.65-2.7,38.89-7.65,58.43-10.94,20.45-3.45,41.22-4.08,61.91-4.78,13.93-.48,29.11-1.34,43.36,1.06.28.08.57.15.87.19,5.47.71,10.95,1.42,16.42,2.13,5.25.68,6.32-6.92,2.52-9.32Z"/>
  <path class="st9" d="M86.86,245.12c4,0,7.24-3.24,7.24-7.24v-105.33c-.01-2.94,1.77-5.59,4.49-6.69l106.8-43.75c3.65-1.64,5.27-5.93,3.63-9.57-1.56-3.47-5.55-5.14-9.12-3.82l-106.79,43.74c-8.17,3.32-13.51,11.27-13.49,20.09v105.33c0,4,3.24,7.24,7.24,7.24Z"/>
  <g id="Layer_21">
    <path class="st9" d="M518.49,295.53c-1.71,2.95-7.22,2.92-8.95,0-5.07-8.52-25.29-9.27-36.61-9.69-17.01-.62-34,.72-50.73,2.69-16.85,2-33.53,4.58-50.43,6.4-8.18.89-16.52,1.8-24.82,1.85-7.74.05-15.3-.99-22.69-2.42-7.72-1.5-15.7-3.02-22.8-5.62-3.97-1.45-11.98-4.8-12.46-8.45-1.83-1.31-2.85-3.22-2.68-5.03-.5-.38-.87-.82-.97-1.23-1.16-4.74,7.83-9.12,12.97-11.53,6.96-3.26,15.12-5.35,23.35-6.62,19.58-3.02,40.65-3.11,60.67-3.29,20.15-.19,40.58.02,60.59,1.77,17.56,1.54,35.17,4.67,49.86,11.53,7.1,3.32,13.39,7.33,18.35,12.1,4.9,4.71,10.72,11.72,7.36,17.53h-.01Z"/>
    <path class="st2" d="M519.09,269.11c-8.52-21.96-46.38-34.15-83.12-36.91-22.35-1.68-45.17-.78-67.38,1.11-23.05,1.95-45.18,5.71-67.75,8.84-4.69.65-9.47,1.2-14.29,1.3-1.92.04-3.84,0-5.76-.12-2.6-.17-5.13-.52-7.66-.89-3.52-.53-7.03-1.11-10.67-1.33-9.27-.56-18.39,1.7-21.72,6.83-.42.65-.29,1.27.14,1.84-.18.44-.24.92-.09,1.44.34,1.26,1.67,2.28,3.46,2.95.07.14.14.28.19.43.43,1.19,1.7,1.85,3.22,2.11,5.09,20.83,57.79,19.61,84.78,17.14,19.33-1.77,38.13-4.95,57.24-7.32,19.48-2.42,39.24-3.65,59.2-3.43,10.99.12,22.18.48,32.85,2.06,10.47,1.56,19.94,4.49,29.36,7.43,4.29,1.33,9.02-.86,7.99-3.49h.01Z"/>
    <g class="st12">
      <path class="st3" d="M312.75,274.02s.02-.12.02-.25v-.47c.03-.49.08-.96.17-1.43s.17-.93.27-1.39.19-.93.27-1.4.13-.96.15-1.47v-.33c-.05-.1-.17-.22-.35-.34-.25-.04-.47-.08-.66-.12-.19-.05-.37-.09-.54-.14s-.34-.11-.52-.17-.37-.13-.59-.22l-.14-.05c-.07-.03-.15-.06-.23-.09-.08-.04-.16-.07-.23-.09l-.12-.05c-.19-.14-.3-.25-.32-.35s-.03-.2-.03-.31c0-.13.04-.24.07-.31.04-.07.15-.1.34-.09.07.02.18.06.34.11s.34.1.53.15.36.1.53.15.3.08.38.09c.14.02.36.07.66.13s.63.13,1.01.2c.37.07.77.15,1.2.24.42.08.82.16,1.2.24.37.07.71.14,1.02.19s.53.09.67.11l1.03.39s.1.05.15.11.08.12.11.19.05.13.07.19.02.1.02.13c0,.22-.09.35-.25.4s-.35.05-.59.02-.5-.09-.77-.18c-.28-.08-.55-.15-.81-.21s-.49-.08-.7-.07-.35.08-.44.23c-.07.61-.14,1.19-.24,1.74-.1.55-.21,1.1-.33,1.64s-.24,1.07-.38,1.6-.28,1.08-.42,1.64c-.03.12-.07.22-.1.32-.04.09-.09.17-.17.22s-.16.08-.27.08-.26-.04-.45-.11c-.18-.06-.31-.16-.4-.29s-.14-.25-.14-.41v-.17l-.03-.02v.02Z"/>
      <path class="st3" d="M325.37,277.37v-.59c0-.22,0-.46.02-.7,0-.25,0-.49.02-.7v-1.17c0-.09,0-.18-.02-.27,0-.09,0-.19-.02-.27s0-.14,0-.17c0-.04-.03-.07-.07-.09s-.1-.04-.17-.05c-.06,0-.1-.02-.16-.02h-.09c-.28-.05-.58-.08-.88-.08s-.61.02-.91.04-.59.05-.87.08-.52.05-.72.05c-.07.02-.15.03-.21.05s-.12.05-.18.11c-.02.08-.04.19-.05.32,0,.14-.02.31-.02.51,0,.27,0,.56-.04.87-.02.32-.07.6-.14.87s-.18.48-.33.63-.34.22-.58.17c-.19-.04-.34-.11-.46-.22s-.19-.25-.17-.4l.16-2.69c0-.12-.07-.23-.19-.32s-.28-.19-.43-.28c-.16-.09-.3-.19-.43-.3s-.18-.25-.16-.41c0-.14.07-.23.17-.29s.22-.1.36-.13.28-.06.43-.08.27-.08.36-.15v-.25c0-.08,0-.16.02-.26,0-.1.02-.2.03-.29,0-.09,0-.19.03-.26,0-.08.02-.13.02-.17,0-.09,0-.25.04-.46s.05-.42.08-.64.06-.42.08-.6c.02-.19.04-.31.04-.36,0-.11.05-.22.1-.34.06-.12.14-.22.23-.32.1-.09.21-.17.35-.22s.29-.06.46-.03c.12.02.22.07.3.13.08.07.15.14.19.22s.08.16.1.25.02.16,0,.22c-.04.5-.1.98-.22,1.43-.11.46-.19.93-.22,1.42v.37c0,.08.02.16.05.25.04.08.09.13.18.15.04,0,.1,0,.22.02h.29l3.26-.14c.21-.02.38-.14.49-.35s.19-.47.26-.78.12-.63.17-.97c.05-.34.12-.66.21-.93s.22-.5.38-.66c.17-.16.4-.22.7-.15.3.05.49.15.59.29s.15.32.14.52c-.02.19-.07.39-.12.58s-.12.39-.19.59-.14.39-.19.59-.1.39-.12.59c0,.09-.03.23-.06.41-.03.19-.06.38-.08.58s-.06.38-.07.55-.04.27-.04.31c0,.11,0,.29-.04.53s-.05.52-.08.85l-.05,1.02-.05.99c-.04.31-.06.59-.06.83s-.02.43-.04.55c-.06.25-.14.45-.25.58-.11.12-.36.15-.74.08-.4-.08-.6-.27-.6-.59v-.39.02-.08Z"/>
      <path class="st3" d="M328.66,277.93l.04-.05v-.07c0-.08.03-.21.06-.36.03-.16.06-.32.09-.49s.07-.32.1-.46.07-.23.1-.29l.32-5.23c-.16-.2-.26-.37-.32-.49s-.07-.29-.04-.51c.02-.16.06-.29.11-.39s.2-.21.45-.31c.91-.31,1.82-.54,2.72-.71s1.83-.28,2.79-.34c.06,0,.11,0,.19-.02s.15-.02.23-.02c.06-.02.11-.02.17-.02.07,0,.14,0,.21-.02l.46-.03c.23-.02.47-.02.72,0,.25,0,.47.04.68.08.19.05.36.12.48.23s.18.25.17.44c0,.12-.07.22-.21.31-.15.08-.29.13-.44.15-.16,0-.41.03-.76.07s-.73.08-1.16.12c-.39.05-.75.08-1.09.1-.33.02-.58.04-.71.05-.52.06-.97.12-1.34.2-.36.07-.67.19-.91.34s-.42.36-.53.62c-.12.26-.19.6-.22,1.02l-.02.08v.15l-.02.24.02.02c.12.09.29.15.49.15h.62l.3-.02c.45-.03.89-.07,1.33-.13s.88-.12,1.35-.2c.45-.07.88-.14,1.32-.21s.87-.11,1.32-.14c.47-.03.71.14.7.5-.02.19-.18.35-.45.48-.28.13-.65.25-1.1.33s-.94.16-1.48.22-1.07.11-1.59.15c-.36.04-.71.08-1.04.12-.33.03-.62.07-.88.12s-.47.09-.65.15-.29.12-.36.19v.02c-.05.29-.08.54-.11.76s-.06.42-.07.61-.05.39-.07.58-.04.42-.05.66l-.02.67v.02c.07.04.13.08.15.1s.07.04.15.03l.3-.02c.84-.05,1.66-.22,2.48-.5s1.59-.61,2.28-.97c.07-.03.16-.07.23-.11s.15-.08.2-.13c.21-.12.42-.23.62-.32.2-.09.41-.15.61-.15.26-.02.43.02.51.12s.12.23.11.39c0,.24-.18.48-.5.71-.33.23-.72.46-1.21.67s-1.02.41-1.61.59-1.15.34-1.69.47c-.54.14-1.02.25-1.46.32-.44.08-.74.13-.92.14l-.6.04c-.19,0-.38.02-.58.02s-.37-.02-.53-.06-.29-.11-.38-.21c-.09-.09-.13-.24-.11-.42v-.14l.03-.02h.02Z"/>
      <path class="st3" d="M344.36,274.05c.08-.45.19-.89.32-1.36,0-.04.02-.07.04-.09s.02-.05.02-.06v-.02c.12-.45.22-.88.32-1.32.08-.43.15-.87.19-1.33l.02-.21v-.92c-.12-.19-.19-.35-.21-.49-.02-.13-.02-.29.02-.48.04-.47.36-.83.98-1.06l.15-.02s.07,0,.1-.02c.04,0,.07-.02.13-.05.28-.05.62-.11,1.03-.19.41-.08.83-.15,1.23-.23.41-.08.79-.15,1.14-.22s.6-.12.76-.16l.23-.03c.23-.03.51-.07.85-.1.33-.03.66-.05.97-.02.31.02.57.08.76.17.2.09.3.26.29.49,0,.18-.08.33-.2.46-.13.12-.32.21-.57.25-.19.03-.4.05-.61.06-.2.02-.42.02-.62.02h-.19c-.18,0-.34,0-.51.02s-.35.04-.56.07l-.32.05c-.06,0-.11.02-.18,0h-.18c-.07,0-.15,0-.21.02-.07,0-.13.02-.19.03l-.36.05c-.46.07-.83.17-1.09.32-.17.1-.31.34-.41.71-.11.38-.19.8-.21,1.28l-.02.24v.12l-.02.32.02.08v.02c.05.07.12.12.22.15.1.04.22.05.36.06s.28,0,.44,0,.31-.03.46-.05l.53-.08c.18-.02.34-.05.5-.08s.32-.07.46-.11c.06,0,.1-.02.14-.03s.08-.02.12-.02c.2-.04.41-.08.59-.12s.38-.07.59-.1c.13-.02.27-.02.4-.02.14,0,.26.03.37.06s.19.09.26.16.1.16.1.28c0,.05-.02.12-.06.19-.04.08-.08.17-.15.25s-.13.16-.21.22c-.08.07-.16.11-.24.12l-4.05.59c-.29.04-.53.08-.74.14-.2.05-.39.14-.54.26-.12.12-.22.28-.31.48s-.16.41-.21.62c-.06.22-.11.44-.14.66-.04.22-.07.4-.1.56v.18c0,.07-.03.19-.06.39s-.06.39-.09.59-.07.4-.08.59c-.02.19-.04.3-.04.35-.05.2-.2.32-.47.36-.26.04-.47,0-.63-.12s-.27-.27-.34-.46-.11-.39-.13-.61c-.02-.22,0-.42,0-.59.04-.43.09-.86.19-1.31h-.04v.04Z"/>
      <path class="st3" d="M353.84,275.18c.02-.06.04-.12.04-.17v-.32s0-.11.02-.15v-.21c.05-.67.11-1.36.2-2.04.09-.69.19-1.38.31-2.07.11-.69.21-1.37.31-2.06.09-.69.16-1.37.2-2.04.12-.18.23-.3.32-.37s.21-.12.37-.14c.17-.02.31-.02.42.02s.2.1.28.19.12.18.16.29.05.22.05.32l-.04.31v.42c0,.15,0,.3-.03.42l-.04.31c-.07,1.2-.19,2.39-.33,3.56s-.33,2.36-.58,3.59c-.04.17-.13.32-.28.45-.16.12-.34.21-.56.24-.25.04-.44.05-.56,0-.12-.03-.2-.15-.26-.35v-.19h0Z"/>
      <path class="st3" d="M356.87,274.65s.02-.1.02-.15v-.52l.04-.22.02-.28c0-.1.02-.22.03-.33v-.32l.04-.17c0-.08.04-.24.08-.48s.09-.53.15-.86.11-.69.18-1.06c.06-.37.12-.73.18-1.06s.1-.62.15-.87.07-.41.08-.49c.04-.22.05-.42.04-.59,0-.17.05-.37.17-.58.05-.08.19-.18.42-.29.23-.12.52-.23.86-.35s.71-.25,1.11-.37.79-.24,1.16-.34.71-.19,1.01-.27.53-.13.68-.15c.23-.04.5-.07.81-.09s.6-.03.88,0c.29.02.54.07.75.16.22.09.35.22.41.41v.14c0,.07-.02.12,0,.18v.31c-.04.43-.16.82-.37,1.16-.21.35-.52.72-.91,1.11-.63.53-1.27,1.04-1.92,1.54-.65.49-1.27,1-1.87,1.53v.12c0,.22.07.39.27.51.19.12.44.22.73.3.3.07.61.13.96.17s.67.08.97.13c.3.05.55.12.75.19s.31.2.31.36c-.02.08-.07.16-.16.22-.08.06-.18.12-.3.15-.11.04-.23.07-.35.09s-.22.05-.3.05c-.5.08-.97.1-1.38.06-.42-.04-.81-.12-1.17-.24s-.71-.27-1.02-.45c-.33-.18-.64-.37-.95-.57-.07-.02-.14-.04-.19-.03-.05,0-.11,0-.19.02-.13.02-.22.06-.26.12-.02.08-.05.21-.08.4s-.07.39-.11.59c-.04.21-.07.4-.11.59s-.07.32-.07.4c-.04.19-.08.35-.17.46-.07.12-.26.2-.54.25-.25.04-.43.02-.52-.07-.1-.08-.19-.19-.26-.33l.02-.21h-.06l-.02.02ZM359.08,270.83s.06.02.07.02c.15-.02.38-.14.68-.33s.63-.44,1-.74c.36-.29.74-.62,1.12-.96s.73-.69,1.04-1.02.57-.62.77-.88c.2-.26.31-.45.31-.57,0-.08,0-.14-.02-.19s-.07-.08-.19-.08l-.15.02s-.09.02-.14.02-.12.02-.2.02l-.08.02c-.99.16-1.77.34-2.33.52-.56.19-.97.43-1.24.73s-.45.66-.53,1.1c-.07.44-.14.99-.18,1.65v.62s.06.06.1.05h-.03Z"/>
      <path class="st3" d="M366.64,270.76c.13-.15.35-.25.66-.31h.15c.07,0,.13,0,.17-.02.23.19.48.35.75.51s.57.29.88.39.65.17,1,.2.73.02,1.14-.05c.2-.04.46-.11.76-.22s.61-.25.95-.41.67-.35,1-.54.64-.4.91-.61.49-.42.66-.62c.18-.21.27-.4.28-.58,0-.21-.06-.38-.21-.52-.16-.15-.35-.26-.59-.35-.24-.08-.49-.15-.76-.19-.27-.03-.5-.04-.7-.02l-4.47.36c-.26.04-.52.05-.76.02-.24-.02-.46-.07-.66-.15s-.35-.19-.46-.32-.16-.32-.14-.53c0-.32.16-.65.43-1s.62-.7,1.05-1.04.9-.67,1.43-.98c.53-.32,1.06-.59,1.6-.85s1.05-.46,1.54-.64c.49-.17.91-.29,1.26-.35.23-.04.46-.04.7,0s.45.11.62.2.33.22.44.37.16.32.15.49c0,.15-.05.28-.13.4-.08.12-.23.19-.45.23-.16.02-.3.04-.45.03-.14,0-.29-.02-.43-.03-.14-.02-.29-.02-.44-.03-.15,0-.31,0-.46.03-.43.07-.85.19-1.25.35s-.8.35-1.18.58-.73.46-1.08.73-.66.53-.96.82c0,.02-.02.06-.05.12,0,.1.06.16.17.17.11.02.23.02.35.03l3.45-.42c.45-.04.94-.05,1.44,0,.5.04.96.13,1.37.28s.75.35,1.01.62.39.62.38,1.03c-.05.58-.27,1.15-.68,1.71s-.92,1.07-1.52,1.53c-.6.46-1.28.85-2.02,1.17-.73.32-1.46.55-2.15.66-.29.05-.6.08-.97.09-.36.02-.72,0-1.1-.03s-.73-.09-1.09-.17-.67-.19-.94-.32c-.27-.14-.49-.31-.65-.52-.16-.2-.22-.45-.2-.73.02-.22.1-.42.23-.57l-.02-.02.04.02Z"/>
      <path class="st3" d="M381.8,267.34c.07-.43.16-.86.24-1.3.08-.42.17-.86.25-1.29s.15-.86.19-1.28v-.49c0-.06-.03-.09-.07-.09s-.09,0-.14.02c-.25.05-.5.12-.74.21s-.49.2-.73.31-.49.21-.73.31-.49.16-.74.21l-.65.12c-.25-.03-.42-.09-.51-.19s-.12-.23-.11-.41c0-.08.12-.2.37-.35s.59-.32.99-.52c.42-.19.89-.4,1.42-.63.53-.22,1.09-.45,1.66-.67.58-.22,1.15-.43,1.73-.64s1.1-.39,1.59-.56c.48-.16.9-.3,1.25-.42.35-.11.6-.18.74-.2.15-.03.31-.05.46-.06s.3-.02.43,0c.12.02.22.07.3.15s.1.19.09.35c0,.22-.1.39-.27.53-.17.14-.38.26-.64.35-.26.1-.55.19-.85.25-.31.07-.62.14-.92.22-.31.07-.59.16-.85.25-.27.1-.47.22-.63.37-.14.14-.28.35-.4.63s-.24.62-.35.99-.2.76-.3,1.17-.17.8-.23,1.19-.11.73-.15,1.04-.05.55-.05.7c-.02.23-.02.46,0,.67.03.22.06.42.09.64s.07.43.1.64c.04.21.05.43.04.67,0,.19-.07.35-.19.47-.11.12-.31.2-.57.25-.32.05-.57.03-.74-.07s-.31-.25-.39-.45-.13-.42-.15-.66,0-.49,0-.71l.02-.43c.02-.44.07-.88.15-1.31v.02h0Z"/>
      <path class="st3" d="M393.99,265.45c.24-.05.43-.02.57.05.14.08.25.19.34.32.09.14.19.29.28.46.09.17.21.32.37.44s.37.22.64.27.63.05,1.08-.04c.96-.18,1.71-.51,2.26-1,.55-.49.85-1.11.89-1.87.02-.35-.06-.62-.23-.81s-.41-.34-.71-.44-.64-.16-1.04-.19c-.39-.03-.79-.05-1.2-.05s-.81-.02-1.19-.03c-.39-.02-.73-.05-1.04-.12s-.55-.18-.72-.32-.26-.35-.23-.63c0-.26.11-.54.31-.85.19-.3.44-.61.74-.93.31-.31.65-.62,1.03-.91.38-.3.77-.57,1.17-.82.4-.25.79-.46,1.17-.62s.72-.28,1.04-.34c.23-.04.47-.05.72-.03s.49.07.7.15c.21.08.38.19.5.35.12.15.19.32.17.53,0,.15-.07.29-.19.42-.11.13-.27.21-.46.25-.15.03-.3.03-.43.02-.13-.02-.26-.04-.38-.07s-.26-.05-.39-.06c-.14-.02-.29,0-.46.02-.33.06-.65.16-.95.29s-.58.29-.84.48c-.27.19-.52.39-.76.6s-.47.44-.7.66v.2c0,.16.14.27.44.33.31.06.69.12,1.15.15s.97.08,1.5.12c.54.05,1.04.13,1.5.25s.84.31,1.12.55c.3.24.43.58.39,1.01-.02.54-.14,1.07-.36,1.6-.21.52-.53,1.01-.93,1.46s-.89.83-1.48,1.16-1.25.56-2.02.7c-.58.11-1.12.16-1.64.16s-.97-.07-1.37-.22c-.39-.14-.7-.36-.91-.66s-.32-.7-.3-1.2c0-.42.28-.69.84-.79h0Z"/>
      <path class="st3" d="M402.68,266.25l.04-.06v-.08c0-.08.03-.21.06-.37s.06-.32.09-.49.07-.32.1-.47c.04-.15.07-.24.1-.29l.32-5.26c-.16-.19-.26-.34-.32-.46s-.07-.29-.04-.51c.02-.16.06-.29.11-.41.05-.11.19-.22.45-.35.9-.39,1.79-.73,2.67-.98s1.8-.46,2.74-.61c.06,0,.11-.02.18-.04s.14-.03.23-.05c.06-.02.11-.03.17-.04.07,0,.14-.02.21-.03l.45-.08c.23-.04.46-.06.71-.08s.46,0,.67.02.35.09.47.19c.12.09.18.24.17.42,0,.12-.07.23-.21.32s-.29.16-.43.19c-.16.02-.4.07-.74.14s-.72.15-1.14.23c-.38.08-.73.15-1.07.21s-.57.1-.71.12c-.51.11-.95.22-1.31.33s-.66.25-.89.43-.41.4-.53.68c-.11.27-.19.62-.22,1.04l-.02.08v.15l-.02.24h.02c.12.09.28.13.48.12s.41-.03.61-.06l.3-.05c.44-.07.87-.16,1.3-.26s.87-.22,1.32-.33c.44-.12.87-.23,1.3-.34s.85-.19,1.3-.27c.47-.08.7.07.69.43-.02.19-.17.36-.45.52s-.64.31-1.08.44c-.44.13-.92.25-1.45.37s-1.05.22-1.57.31c-.36.08-.71.15-1.02.22-.33.07-.61.13-.87.2s-.47.14-.64.21-.29.15-.35.23v.02c-.05.29-.08.55-.11.76s-.06.42-.07.62-.05.39-.07.59c-.02.2-.04.42-.05.66l-.02.67v.02c.07.03.13.06.15.08s.07.03.15.02l.3-.05c.82-.13,1.63-.39,2.44-.75s1.56-.76,2.25-1.2c.07-.04.16-.08.23-.13s.14-.09.19-.15c.2-.15.41-.27.61-.39.2-.11.4-.19.59-.22.25-.04.42-.02.5.07s.12.22.1.39c0,.24-.18.49-.49.76-.32.26-.71.52-1.19.79-.47.26-1,.52-1.58.75s-1.13.45-1.66.64-1.01.35-1.43.47c-.43.12-.72.2-.9.23l-.59.09c-.19.03-.37.05-.57.07-.19.02-.37.02-.53,0s-.29-.08-.38-.17c-.09-.08-.13-.22-.11-.42v-.14l.04.03.02.02Z"/>
      <path class="st3" d="M412.64,265.11c.02-.07.03-.13.02-.19s0-.1.02-.14v-.12l.02-.14v-.19s.02-.11.04-.18v-.05s.02-.11.05-.23c.04-.13.07-.27.11-.42.05-.15.08-.29.11-.42.04-.13.05-.21.05-.23.02-.08.06-.25.1-.51s.1-.56.17-.91.14-.73.2-1.12c.07-.4.14-.77.19-1.12.07-.35.11-.66.17-.93.05-.26.08-.44.09-.52,0-.05.02-.17.07-.35.05-.18.09-.37.15-.57.06-.21.11-.41.17-.6s.09-.34.11-.44c.06-.19.15-.33.28-.46.13-.12.32-.2.55-.22.12-.02.23-.02.34-.02.1,0,.19.05.24.15v1.15c0,.13,0,.22.03.27,0,.08,0,.19.03.34.02.14.04.29.05.44s.04.29.05.41c.02.12.03.2.03.22s.03.12.07.29c.05.16.11.35.18.57s.14.42.2.63.13.37.18.49c0,0,0,.06.04.15.02.09.06.19.11.29.05.11.11.2.18.28s.14.12.23.1c.07,0,.13-.04.19-.09s.11-.12.17-.19.09-.15.13-.22c.04-.08.07-.13.09-.17.07-.13.19-.32.34-.57l.45-.75c.15-.25.28-.47.4-.67.11-.2.18-.32.19-.34.05-.05.12-.19.23-.4s.23-.46.35-.7c.13-.25.24-.49.34-.71s.18-.36.2-.42c.05-.07.1-.18.19-.32.07-.15.17-.29.27-.44.1-.15.22-.28.35-.4s.28-.19.43-.21c.43-.05.71.07.83.37l-.05.44c0,.1-.02.21-.02.32v.66c0,.1,0,.21-.04.31l-.04.42c-.04.59-.07,1.17-.1,1.75-.04.58-.07,1.16-.12,1.74s-.12,1.16-.2,1.74c-.09.58-.21,1.16-.36,1.74-.12.12-.24.22-.36.32s-.26.15-.43.18c-.21.02-.37-.02-.49-.13l.07-.79c.02-.49.07-.96.13-1.44s.11-.95.13-1.43l.04-.19v-.16c0-.08,0-.17-.03-.26s-.02-.18-.03-.25v-.16s-.04,0-.07-.02c-.12.02-.25.12-.38.29-.13.19-.28.41-.43.67-.16.26-.33.56-.5.86-.19.32-.38.61-.59.88s-.44.5-.68.7c-.24.19-.51.31-.79.35-.23.03-.42-.02-.57-.12-.15-.11-.27-.25-.37-.43s-.19-.37-.26-.59-.14-.41-.2-.59-.15-.33-.23-.45c-.08-.12-.19-.17-.32-.15h-.05s-.04.06-.07.14c-.04.08-.07.14-.07.19-.19.63-.34,1.27-.48,1.9-.13.63-.26,1.26-.38,1.89-.06.15-.17.27-.33.38s-.33.17-.52.19c-.12.02-.22,0-.32-.06-.09-.05-.17-.11-.25-.16v-.15h-.02Z"/>
      <path class="st3" d="M422.84,263.19l.04-.05v-.06c0-.08.03-.2.06-.36.03-.15.06-.32.09-.48s.07-.31.1-.45c.04-.14.07-.23.1-.28l.32-5.2c-.16-.22-.26-.39-.32-.52s-.07-.3-.04-.52c.02-.15.06-.29.11-.39s.2-.19.46-.27c.91-.23,1.82-.39,2.72-.48s1.83-.12,2.79-.11h1.27c.23.02.47.03.72.06s.47.08.68.14c.2.06.36.15.48.28.12.12.18.27.17.46,0,.12-.07.22-.21.29-.15.07-.29.11-.44.12h-.76c-.35,0-.73.02-1.16.02-.39,0-.75.02-1.09,0h-.71c-.52.02-.97.05-1.34.09s-.67.13-.91.26-.42.32-.54.58c-.12.25-.19.59-.22,1l-.02.08v.15l-.02.24.02.02c.12.11.29.17.49.2s.42.05.62.05h.3c.45.02.89,0,1.33-.02s.89-.05,1.35-.08c.45-.04.88-.07,1.32-.09.44-.03.87-.04,1.32-.02.48,0,.71.19.71.56-.02.19-.18.33-.46.44-.29.11-.65.19-1.1.24s-.94.08-1.48.1-1.07.02-1.6.02c-.37,0-.71.02-1.04.02s-.62.02-.88.05-.48.05-.65.09c-.18.04-.3.09-.36.16v.02c-.05.29-.08.53-.11.75s-.06.42-.07.6c-.02.19-.05.38-.07.58-.02.19-.04.41-.05.65l-.02.66v.02c.07.05.13.08.15.12s.07.05.15.05h.3c.84.02,1.66-.07,2.49-.29s1.59-.47,2.28-.78c.07-.02.16-.05.23-.08s.15-.07.2-.12c.21-.11.42-.19.62-.27s.41-.11.61-.11c.26,0,.43.06.51.16s.12.24.11.41c0,.24-.18.46-.5.67-.33.21-.72.39-1.21.57-.48.18-1.02.32-1.62.46s-1.16.24-1.7.33-1.03.15-1.46.2c-.44.05-.74.07-.92.06l-.6-.02c-.19,0-.38-.02-.58-.03-.19-.02-.37-.05-.54-.11-.16-.05-.29-.13-.38-.24-.09-.1-.13-.25-.11-.43v-.14l.06-.02h.01Z"/>
      <path class="st3" d="M433.28,261.64c.13-.11.35-.14.66-.09.02,0,.07.02.15.04.07.02.13.03.17.04.23.25.48.51.75.76s.57.47.89.68.66.39,1.01.53.73.25,1.14.32c.2.03.46.04.76.02s.62-.05.96-.11c.33-.05.67-.12,1.01-.22.34-.08.64-.19.91-.32s.49-.26.67-.41.27-.31.28-.49c0-.2-.07-.4-.21-.59-.16-.19-.35-.38-.59-.54s-.49-.31-.76-.43-.5-.2-.7-.25l-4.49-1.09c-.26-.05-.52-.12-.76-.22s-.46-.22-.67-.35c-.19-.14-.35-.3-.46-.47s-.16-.37-.14-.58c0-.32.16-.6.43-.86s.62-.49,1.05-.7c.43-.2.91-.38,1.44-.52s1.07-.25,1.61-.33c.54-.08,1.05-.12,1.55-.14.49-.02.91,0,1.26.06.23.04.46.11.7.22s.45.25.62.4c.17.15.33.32.44.51s.16.37.15.54c0,.15-.05.27-.13.35-.08.09-.23.12-.45.08-.16-.02-.31-.06-.45-.12s-.29-.11-.43-.17-.29-.12-.44-.17-.31-.09-.46-.12c-.43-.06-.85-.08-1.25-.05s-.81.09-1.18.19-.74.22-1.09.38c-.34.15-.67.32-.97.51,0,.02-.02.05-.05.1,0,.1.06.18.18.22.11.05.23.1.35.15l3.47.69c.46.11.94.26,1.45.46s.97.44,1.38.73c.42.29.75.6,1.02.96s.39.74.38,1.16c-.05.57-.27,1.06-.69,1.5-.41.42-.92.77-1.53,1.03-.6.25-1.28.43-2.02.52s-1.46.08-2.16-.03c-.29-.05-.61-.12-.97-.22-.36-.1-.73-.23-1.11-.39s-.73-.32-1.1-.52c-.35-.19-.67-.4-.95-.63s-.49-.47-.65-.73-.23-.52-.2-.79c.02-.22.1-.39.23-.49h-.03.02Z"/>
      <path class="st3" d="M448.45,263.28c.07-.41.16-.81.24-1.21.08-.39.17-.79.25-1.2s.15-.81.19-1.22v-.49c0-.06-.03-.1-.07-.12-.05-.02-.09-.02-.14-.03-.25-.05-.5-.06-.74-.05-.24,0-.49.02-.73.05s-.49.04-.73.05-.49,0-.74-.05l-.66-.12c-.25-.12-.42-.24-.51-.36-.08-.12-.12-.28-.11-.45,0-.08.12-.15.38-.22.25-.06.59-.12,1-.17.42-.05.89-.09,1.42-.13.54-.04,1.09-.06,1.67-.08.58-.02,1.15-.03,1.73-.03h1.59c.48,0,.9.02,1.26.03s.6.03.74.06c.15.02.31.06.46.1s.3.09.43.15c.12.06.22.15.3.25s.1.23.09.38c0,.21-.1.35-.27.44-.17.08-.38.12-.65.13-.26,0-.55,0-.85-.05s-.62-.08-.93-.11-.59-.05-.85-.05-.47.05-.63.15c-.14.08-.28.25-.4.49s-.24.53-.35.86-.2.69-.3,1.06c-.08.38-.17.75-.23,1.1-.07.36-.11.69-.15.99s-.05.52-.05.69c-.02.22-.02.46,0,.68.03.22.06.45.09.68s.07.46.1.68c.04.22.05.45.04.68,0,.19-.07.32-.19.4-.11.08-.31.09-.57.05-.32-.05-.57-.16-.74-.33-.18-.16-.31-.36-.39-.58s-.13-.46-.15-.71-.02-.49,0-.71l.02-.42c.02-.43.07-.85.15-1.26h-.02Z"/>
      <path class="st3" d="M454.57,267.25l.04-.05v-.06c0-.08.03-.2.06-.35s.06-.31.09-.46.07-.3.1-.43c.04-.13.07-.22.1-.26l.31-5.15c-.15-.24-.26-.43-.31-.57-.06-.14-.07-.32-.04-.52.02-.15.06-.28.1-.37s.19-.16.45-.19c.89-.08,1.78-.11,2.67-.05s1.79.16,2.73.33c.06,0,.11.02.18.02s.14.02.23.04c.06,0,.11,0,.17.02.07.02.14.02.21.04l.45.08c.23.04.46.1.71.16s.46.15.66.25c.19.09.35.22.47.35s.18.3.17.48c0,.12-.07.21-.21.25s-.28.06-.43.05c-.15-.03-.4-.07-.74-.12s-.72-.1-1.13-.16c-.38-.05-.73-.1-1.06-.16-.33-.05-.56-.09-.71-.12-.51-.06-.95-.11-1.31-.12s-.66.02-.89.12c-.23.09-.41.26-.52.49s-.19.56-.22.96l-.02.08v.15l-.02.23.02.02c.12.12.28.22.48.28s.41.11.61.15l.3.05c.44.08.86.14,1.3.19.43.05.86.08,1.32.12.44.03.86.07,1.29.11s.85.1,1.29.18c.46.08.7.31.69.66-.02.19-.17.3-.45.37s-.63.08-1.07.07-.92-.06-1.45-.13-1.05-.15-1.56-.23c-.36-.05-.7-.09-1.02-.14s-.61-.08-.86-.09c-.26-.02-.46-.02-.64-.02s-.29.05-.35.11v.02c-.05.28-.07.52-.1.73s-.06.41-.07.59-.05.37-.07.56-.04.41-.05.64l-.02.66v.02c.07.06.12.11.15.14s.07.05.15.07l.3.05c.82.15,1.63.19,2.43.1s1.55-.22,2.24-.42c.07-.02.15-.03.23-.05.07-.02.14-.05.19-.08.2-.07.41-.13.61-.17s.4-.05.59,0c.25.05.42.13.5.25s.12.25.1.42c0,.24-.18.43-.49.59s-.71.29-1.18.38c-.47.1-1,.17-1.58.21s-1.13.06-1.65.06-1,0-1.43-.02-.72-.05-.9-.08l-.59-.11c-.19-.03-.37-.08-.57-.12s-.36-.12-.52-.19-.28-.18-.37-.3-.13-.27-.1-.45v-.14h0v-.02Z"/>
      <path class="st3" d="M464.54,269.27s.02-.09.02-.15v-.52l.04-.2.02-.28c0-.1.02-.21.03-.32s0-.22,0-.32l.04-.16c0-.07.04-.22.08-.45.05-.23.09-.5.15-.81.06-.32.11-.65.17-1s.11-.68.17-1c.06-.32.1-.59.15-.82s.07-.39.08-.46c.04-.21.05-.4.04-.58s.05-.35.17-.52c.05-.07.19-.12.42-.15s.52-.05.85-.05.71,0,1.1.02c.4.02.78.04,1.16.07.37.03.71.06,1.01.08.3.03.52.05.68.08.23.05.49.11.8.19.31.08.59.18.88.3.28.12.53.26.75.42.21.17.35.35.41.56v.62c-.04.42-.16.76-.36,1.03-.21.27-.51.53-.9.79-.63.31-1.26.59-1.9.86s-1.26.56-1.86.87v.12c0,.21.07.42.27.61.19.19.43.38.72.56s.61.35.96.51.66.32.97.47.55.31.75.46.3.31.3.47c-.02.08-.07.14-.16.17-.08.04-.18.05-.3.05s-.23-.02-.35-.03c-.12-.02-.21-.03-.3-.05-.5-.09-.96-.23-1.37-.42-.42-.19-.81-.4-1.16-.65-.36-.25-.7-.52-1.02-.81s-.63-.59-.94-.9c-.07-.05-.14-.08-.19-.1-.05-.02-.11-.03-.19-.04-.13-.02-.21-.02-.26.02-.02.07-.05.19-.08.37s-.07.36-.1.56c-.04.19-.07.38-.11.56s-.07.3-.07.38c-.04.18-.08.32-.17.41s-.25.11-.54.06c-.25-.05-.43-.13-.52-.25s-.19-.26-.26-.42l.02-.21-.07-.02-.03.02ZM466.74,266.22s.06.04.07.04c.15.03.38,0,.68-.09s.63-.22.99-.39.73-.35,1.11-.57.72-.43,1.03-.65.57-.42.76-.61c.2-.19.31-.34.31-.46,0-.08,0-.14-.02-.19s-.07-.11-.19-.15l-.15-.03s-.09-.02-.14-.03c-.05-.02-.12-.03-.2-.05l-.08-.02c-.98-.19-1.76-.29-2.31-.29s-.97.08-1.23.29c-.27.2-.45.5-.52.92-.07.41-.14.94-.18,1.59v.62s.06.08.1.08h-.03Z"/>
    </g>
    <g class="st12">
      <path class="st5" d="M314.59,274.4s.02-.12.02-.25v-.47c.03-.49.08-.96.17-1.43s.17-.93.27-1.39.19-.93.27-1.4.13-.96.15-1.47v-.33c-.05-.1-.17-.22-.35-.34-.25-.04-.47-.08-.66-.12-.19-.05-.37-.09-.54-.14s-.34-.11-.52-.17-.37-.13-.59-.22l-.14-.05c-.07-.03-.15-.06-.23-.09-.08-.04-.16-.07-.23-.09l-.12-.05c-.19-.14-.3-.25-.32-.35s-.03-.2-.03-.31c0-.13.04-.24.07-.31.04-.07.15-.1.34-.09.07.02.18.06.34.11s.34.1.53.15.36.1.53.15.3.08.38.09c.14.02.36.07.66.13s.63.13,1.01.2c.37.07.77.15,1.2.24.42.08.82.16,1.2.24.37.07.71.14,1.02.19s.53.09.67.11l1.03.39s.1.05.15.11.08.12.11.19.05.13.07.19.02.1.02.13c0,.22-.09.35-.25.4s-.35.05-.59.02-.5-.09-.77-.18c-.28-.08-.55-.15-.81-.21s-.49-.08-.7-.07-.35.08-.44.23c-.07.61-.14,1.19-.24,1.74-.1.55-.21,1.1-.33,1.64-.11.54-.24,1.07-.38,1.6s-.28,1.08-.42,1.64c-.03.12-.07.22-.1.32-.04.09-.09.17-.17.22s-.16.08-.27.08-.26-.04-.45-.11c-.18-.06-.31-.16-.4-.29s-.14-.25-.14-.41v-.17l-.03-.02v.02Z"/>
      <path class="st5" d="M327.21,277.74v-.59c0-.22,0-.46.02-.7,0-.25,0-.49.02-.7v-1.17c0-.09,0-.18-.02-.27,0-.09,0-.19-.02-.27s0-.14,0-.17c0-.04-.03-.07-.07-.09s-.1-.04-.17-.05c-.06,0-.1-.02-.16-.02h-.09c-.28-.05-.58-.08-.88-.08s-.61.02-.91.04-.59.05-.87.08-.52.05-.72.05c-.07.02-.15.03-.21.05s-.12.05-.18.11c-.02.08-.04.19-.05.32,0,.14-.02.31-.02.51,0,.27,0,.56-.04.87-.02.32-.07.6-.14.87s-.18.48-.33.63-.34.22-.58.17c-.19-.04-.34-.11-.46-.22s-.19-.25-.17-.4l.16-2.69c0-.12-.07-.23-.19-.32s-.28-.19-.43-.28c-.16-.09-.3-.19-.43-.3s-.18-.25-.16-.41c0-.14.07-.23.17-.29s.22-.1.36-.13.28-.06.43-.08.27-.08.36-.15v-.25c0-.08,0-.16.02-.26,0-.1.02-.2.03-.29,0-.09,0-.19.03-.26,0-.08.02-.13.02-.17,0-.09,0-.25.04-.46s.05-.42.08-.64.06-.42.08-.6c.02-.19.04-.31.04-.36,0-.11.05-.22.1-.34.06-.12.14-.22.23-.32.1-.09.21-.17.35-.22s.29-.06.46-.03c.12.02.22.07.3.13.08.07.15.14.19.22s.08.16.1.25.02.16,0,.22c-.04.5-.1.98-.22,1.43-.11.46-.19.93-.22,1.42v.37c0,.08.02.16.05.25.04.08.09.13.18.15.04,0,.1,0,.22.02h.29l3.26-.14c.21-.02.38-.14.49-.35s.19-.47.26-.78.12-.63.17-.97.12-.66.21-.93.22-.5.38-.66c.17-.16.4-.22.7-.15.3.05.49.15.59.29s.15.32.14.52c-.02.19-.07.39-.12.58-.06.19-.12.39-.19.59s-.14.39-.19.59-.1.39-.12.59c0,.09-.03.23-.06.41-.03.19-.06.38-.08.58s-.06.38-.07.55-.04.27-.04.31c0,.11,0,.29-.04.53s-.05.52-.08.85l-.05,1.02-.05.99c-.04.31-.06.59-.06.83s-.02.43-.04.55c-.06.25-.14.45-.25.58-.11.12-.36.15-.74.08-.4-.08-.6-.27-.6-.59v-.39.02-.08Z"/>
      <path class="st5" d="M330.5,278.3l.04-.05v-.07c0-.08.03-.21.06-.36.03-.16.06-.32.09-.49s.07-.32.1-.46.07-.23.1-.29l.32-5.23c-.16-.2-.26-.37-.32-.49s-.07-.29-.04-.51c.02-.16.06-.29.11-.39s.2-.21.45-.31c.91-.31,1.82-.54,2.72-.71s1.83-.28,2.79-.34c.06,0,.11,0,.19-.02s.15-.02.23-.02c.06-.02.11-.02.17-.02.07,0,.14,0,.21-.02l.46-.03c.23-.02.47-.02.72,0,.25,0,.47.04.68.08.19.05.36.12.48.23s.18.25.17.44c0,.12-.07.22-.21.31-.15.08-.29.13-.44.15-.16,0-.41.03-.76.07s-.73.08-1.16.12c-.39.05-.75.08-1.09.1-.33.02-.58.04-.71.05-.52.06-.97.12-1.34.2-.36.07-.67.19-.91.34s-.42.36-.53.62c-.12.26-.19.6-.22,1.02l-.02.08v.15l-.02.24.02.02c.12.09.29.15.49.15h.62l.3-.02c.45-.03.89-.07,1.33-.13s.88-.12,1.35-.2c.45-.07.88-.14,1.32-.21s.87-.11,1.32-.14c.47-.03.71.14.7.5-.02.19-.18.35-.45.48-.28.13-.65.25-1.1.33s-.94.16-1.48.22-1.07.11-1.59.15c-.36.04-.71.08-1.04.12-.33.03-.62.07-.88.12s-.47.09-.65.15-.29.12-.36.19v.02c-.05.29-.08.54-.11.76s-.06.42-.07.61-.05.39-.07.58-.04.42-.05.66l-.02.67v.02c.07.04.13.08.15.1s.07.04.15.03l.3-.02c.84-.05,1.66-.22,2.48-.5s1.59-.61,2.28-.97c.07-.03.16-.07.23-.11s.15-.08.2-.13c.21-.12.42-.23.62-.32.2-.09.41-.15.61-.15.26-.02.43.02.51.12s.12.23.11.39c0,.24-.18.48-.5.71-.33.23-.72.46-1.21.67s-1.02.41-1.61.59-1.15.34-1.69.47c-.54.14-1.02.25-1.46.32-.44.08-.74.13-.92.14l-.6.04c-.19,0-.38.02-.58.02s-.37-.02-.53-.06-.29-.11-.38-.21c-.09-.09-.13-.24-.11-.42v-.14l.03-.02h.02Z"/>
      <path class="st5" d="M346.2,274.43c.08-.45.19-.89.32-1.36,0-.04.02-.07.04-.09s.02-.05.02-.06v-.02c.12-.45.22-.88.32-1.32.08-.43.15-.87.19-1.33l.02-.21v-.92c-.12-.19-.19-.35-.21-.49-.02-.13-.02-.29.02-.48.04-.47.36-.83.98-1.06l.15-.02s.07,0,.1-.02c.04,0,.07-.02.13-.05.28-.05.62-.11,1.03-.19.41-.08.83-.15,1.23-.23.41-.08.79-.15,1.14-.22s.6-.12.76-.16l.23-.03c.23-.03.51-.07.85-.1.33-.03.66-.05.97-.02.31.02.57.08.76.17.2.09.3.26.29.49,0,.18-.08.33-.2.46-.13.12-.32.21-.57.25-.19.03-.4.05-.61.06-.2.02-.42.02-.62.02h-.19c-.18,0-.34,0-.51.02s-.35.04-.56.07l-.32.05c-.06,0-.11.02-.18,0h-.18c-.07,0-.15,0-.21.02-.07,0-.13.02-.19.03l-.36.05c-.46.07-.83.17-1.09.32-.17.1-.31.34-.41.71-.11.38-.19.8-.21,1.28l-.02.24v.12l-.02.32.02.08v.02c.05.07.12.12.22.15.1.04.22.05.36.06s.28,0,.44,0,.31-.03.46-.05l.53-.08c.18-.02.34-.05.5-.08s.32-.07.46-.11c.06,0,.1-.02.14-.03s.08-.02.12-.02c.2-.04.41-.08.59-.12s.38-.07.59-.1c.13-.02.27-.02.4-.02.14,0,.26.03.37.06s.19.09.26.16.1.16.1.28c0,.05-.02.12-.06.19-.04.08-.08.17-.15.25s-.13.16-.21.22c-.08.07-.16.11-.24.12l-4.05.59c-.29.04-.53.08-.74.14-.2.05-.39.14-.54.26-.12.12-.22.28-.31.48s-.16.41-.21.62c-.06.22-.11.44-.14.66-.04.22-.07.4-.1.56v.18c0,.07-.03.19-.06.39s-.06.39-.09.59-.07.4-.08.59c-.02.19-.04.3-.04.35-.05.2-.2.32-.47.36-.26.04-.47,0-.63-.12s-.27-.27-.34-.46-.11-.39-.13-.61c-.02-.22,0-.42,0-.59.04-.43.09-.86.19-1.31h-.04v.04Z"/>
      <path class="st5" d="M355.69,275.56c.02-.06.04-.12.04-.17v-.32s0-.11.02-.15v-.21c.05-.67.11-1.36.2-2.04.09-.69.19-1.38.31-2.07.11-.69.21-1.37.31-2.06.09-.69.16-1.37.2-2.04.12-.18.23-.3.32-.37s.21-.12.37-.14c.17-.02.31-.02.42.02s.2.1.28.19.12.18.16.29.05.22.05.32l-.04.31v.42c0,.15,0,.3-.03.42l-.04.31c-.07,1.2-.19,2.39-.33,3.56s-.33,2.36-.58,3.59c-.04.17-.13.32-.28.45-.16.12-.34.21-.56.24-.25.04-.44.05-.56,0-.12-.03-.2-.15-.26-.35v-.19h0Z"/>
      <path class="st5" d="M358.71,275.03s.02-.1.02-.15v-.52l.04-.22.02-.28c0-.1.02-.22.03-.33v-.32l.04-.17c0-.08.04-.24.08-.48s.09-.53.15-.86.11-.69.18-1.06c.06-.37.12-.73.18-1.06s.1-.62.15-.87.07-.41.08-.49c.04-.22.05-.42.04-.59,0-.17.05-.37.17-.58.05-.08.19-.18.42-.29.23-.12.52-.23.86-.35s.71-.25,1.11-.37.79-.24,1.16-.34.71-.19,1.01-.27.53-.13.68-.15c.23-.04.5-.07.81-.09s.6-.03.88,0c.29.02.54.07.75.16.22.09.35.22.41.41v.14c0,.07-.02.12,0,.18v.31c-.04.43-.16.82-.37,1.16-.21.35-.52.72-.91,1.11-.63.53-1.27,1.04-1.92,1.54s-1.27,1-1.87,1.53v.12c0,.22.07.39.27.51.19.12.44.22.73.3.3.07.61.13.96.17s.67.08.97.13c.3.05.55.12.75.19s.31.2.31.36c-.02.08-.07.16-.16.22-.08.06-.18.12-.3.15-.11.04-.23.07-.35.09s-.22.05-.3.05c-.5.08-.97.1-1.38.06-.42-.04-.81-.12-1.17-.24s-.71-.27-1.02-.45c-.33-.18-.64-.37-.95-.57-.07-.02-.14-.04-.19-.03-.05,0-.11,0-.19.02-.13.02-.22.06-.26.12-.02.08-.05.21-.08.4s-.07.39-.11.59c-.04.21-.07.4-.11.59s-.07.32-.07.4c-.04.19-.08.35-.17.46-.07.12-.26.2-.54.25-.25.04-.43.02-.52-.07-.1-.08-.19-.19-.26-.33l.02-.21h-.06l-.02.02ZM360.93,271.21s.06.02.07.02c.15-.02.38-.14.68-.33s.63-.44,1-.74c.36-.29.74-.62,1.12-.96s.73-.69,1.04-1.02.57-.62.77-.88c.2-.26.31-.45.31-.57,0-.08,0-.14-.02-.19s-.07-.08-.19-.08l-.15.02s-.09.02-.14.02-.12.02-.2.02l-.08.02c-.99.16-1.77.34-2.33.52-.56.19-.97.43-1.24.73s-.45.66-.53,1.1c-.07.44-.14.99-.18,1.65v.62s.06.06.1.05h-.03Z"/>
      <path class="st5" d="M368.48,271.13c.13-.15.35-.25.66-.31h.15c.07,0,.13,0,.17-.02.23.19.48.35.75.51s.57.29.88.39.65.17,1,.2.73.02,1.14-.05c.2-.04.46-.11.76-.22s.61-.25.95-.41.67-.35,1-.54.64-.4.91-.61.49-.42.66-.62c.18-.21.27-.4.28-.58,0-.21-.06-.38-.21-.52-.16-.15-.35-.26-.59-.35-.24-.08-.49-.15-.76-.19-.27-.03-.5-.04-.7-.02l-4.47.36c-.26.04-.52.05-.76.02-.24-.02-.46-.07-.66-.15s-.35-.19-.46-.32-.16-.32-.14-.53c0-.32.16-.65.43-1s.62-.7,1.05-1.04.9-.67,1.43-.98c.53-.32,1.06-.59,1.6-.85s1.05-.46,1.54-.64c.49-.17.91-.29,1.26-.35.23-.04.46-.04.7,0s.45.11.62.2.33.22.44.37.16.32.15.49c0,.15-.05.28-.13.4-.08.12-.23.19-.45.23-.16.02-.3.04-.45.03-.14,0-.29-.02-.43-.03-.14-.02-.29-.02-.44-.03-.15,0-.31,0-.46.03-.43.07-.85.19-1.25.35s-.8.35-1.18.58-.73.46-1.08.73-.66.53-.96.82c0,.02-.02.06-.05.12,0,.1.06.16.17.17.11.02.23.02.35.03l3.45-.42c.45-.04.94-.05,1.44,0,.5.04.96.13,1.37.28s.75.35,1.01.62.39.62.38,1.03c-.05.58-.27,1.15-.68,1.71s-.92,1.07-1.52,1.53c-.6.46-1.28.85-2.02,1.17-.73.32-1.46.55-2.15.66-.29.05-.6.08-.97.09-.36.02-.72,0-1.1-.03s-.73-.09-1.09-.17-.67-.19-.94-.32c-.27-.14-.49-.31-.65-.52-.16-.2-.22-.45-.2-.73.02-.22.1-.42.23-.57l-.02-.02.04.02Z"/>
      <path class="st5" d="M383.64,267.72c.07-.43.16-.86.24-1.3.08-.42.17-.86.25-1.29s.15-.86.19-1.28v-.49c0-.06-.03-.09-.07-.09s-.09,0-.14.02c-.25.05-.5.12-.74.21s-.49.2-.73.31-.49.21-.73.31-.49.16-.74.21l-.65.12c-.25-.03-.42-.09-.51-.19s-.12-.23-.11-.41c0-.08.12-.2.37-.35s.59-.32.99-.52c.42-.19.89-.4,1.42-.63.53-.22,1.09-.45,1.66-.67.58-.22,1.15-.43,1.73-.64s1.1-.39,1.59-.56c.48-.16.9-.3,1.25-.42.35-.11.6-.18.74-.2.15-.03.31-.05.46-.06s.3-.02.43,0c.12.02.22.07.3.15s.1.19.09.35c0,.22-.1.39-.27.53-.17.14-.38.26-.64.35-.26.1-.55.19-.85.25-.31.07-.62.14-.92.22-.31.07-.59.16-.85.25-.27.1-.47.22-.63.37-.14.14-.28.35-.4.63s-.24.62-.35.99-.2.76-.3,1.17-.17.8-.23,1.19-.11.73-.15,1.04-.05.55-.05.7c-.02.23-.02.46,0,.67.03.22.06.42.09.64s.07.43.1.64.05.43.04.67c0,.19-.07.35-.19.47-.11.12-.31.2-.57.25-.32.05-.57.03-.74-.07s-.31-.25-.39-.45-.13-.42-.15-.66,0-.49,0-.71l.02-.43c.02-.44.07-.88.15-1.31v.02h0Z"/>
      <path class="st5" d="M395.84,265.82c.24-.05.43-.02.57.05.14.08.25.19.34.32.09.14.19.29.28.46.09.17.21.32.37.44s.37.22.64.27.63.05,1.08-.04c.96-.18,1.71-.51,2.26-1,.55-.49.85-1.11.89-1.87.02-.35-.06-.62-.23-.81s-.41-.34-.71-.44-.64-.16-1.04-.19c-.39-.03-.79-.05-1.2-.05s-.81-.02-1.19-.03c-.39-.02-.73-.05-1.04-.12s-.55-.18-.72-.32-.26-.35-.23-.63c0-.26.11-.54.31-.85.19-.3.44-.61.74-.93.31-.31.65-.62,1.03-.91.38-.3.77-.57,1.17-.82.4-.25.79-.46,1.17-.62s.72-.28,1.04-.34c.23-.04.47-.05.72-.03s.49.07.7.15c.21.08.38.19.5.35.12.15.19.32.17.53,0,.15-.07.29-.19.42-.11.13-.27.21-.46.25-.15.03-.3.03-.43.02-.13-.02-.26-.04-.38-.07s-.26-.05-.39-.06c-.14-.02-.29,0-.46.02-.33.06-.65.16-.95.29s-.58.29-.84.48c-.27.19-.52.39-.76.6s-.47.44-.7.66v.2c0,.16.14.27.44.33.31.06.69.12,1.15.15s.97.08,1.5.12c.54.05,1.04.13,1.5.25s.84.31,1.12.55c.3.24.43.58.39,1.01-.02.54-.14,1.07-.36,1.6-.21.52-.53,1.01-.93,1.46s-.89.83-1.48,1.16-1.25.56-2.02.7c-.58.11-1.12.16-1.64.16s-.97-.07-1.37-.22c-.39-.14-.7-.36-.91-.66s-.32-.7-.3-1.2c0-.42.28-.69.84-.79h0Z"/>
      <path class="st5" d="M404.53,266.62l.04-.06v-.08c0-.08.03-.21.06-.37s.06-.32.09-.49.07-.32.1-.47c.04-.15.07-.24.1-.29l.32-5.26c-.16-.19-.26-.34-.32-.46s-.07-.29-.04-.51c.02-.16.06-.29.11-.41.05-.11.19-.22.45-.35.9-.39,1.79-.73,2.67-.98s1.8-.46,2.74-.61c.06,0,.11-.02.18-.04s.14-.03.23-.05c.06-.02.11-.03.17-.04.07,0,.14-.02.21-.03l.45-.08c.23-.04.46-.06.71-.08s.46,0,.67.02c.21.02.35.09.47.19.12.09.18.24.17.42,0,.12-.07.23-.21.32s-.29.16-.43.19c-.16.02-.4.07-.74.14s-.72.15-1.14.23c-.38.08-.73.15-1.07.21s-.57.1-.71.12c-.51.11-.95.22-1.31.33s-.66.25-.89.43-.41.4-.53.68c-.11.27-.19.62-.22,1.04l-.02.08v.15l-.02.24h.02c.12.09.28.13.48.12s.41-.03.61-.06l.3-.05c.44-.07.87-.16,1.3-.26s.87-.22,1.32-.33c.44-.12.87-.23,1.3-.34s.85-.19,1.3-.27c.47-.08.7.07.69.43-.02.19-.17.36-.45.52s-.64.31-1.08.44c-.44.13-.92.25-1.45.37s-1.05.22-1.57.31c-.36.08-.71.15-1.02.22-.33.07-.61.13-.87.2s-.47.14-.64.21-.29.15-.35.23v.02c-.05.29-.08.55-.11.76s-.06.42-.07.62-.05.39-.07.59c-.02.2-.04.42-.05.66l-.02.67v.02c.07.03.13.06.15.08s.07.03.15.02l.3-.05c.82-.13,1.63-.39,2.44-.75s1.56-.76,2.25-1.2c.07-.04.16-.08.23-.13s.14-.09.19-.15c.2-.15.41-.27.61-.39.2-.11.4-.19.59-.22.25-.04.42-.02.5.07s.12.22.1.39c0,.24-.18.49-.49.76-.32.26-.71.52-1.19.79-.47.26-1,.52-1.58.75s-1.13.45-1.66.64-1.01.35-1.43.47c-.43.12-.72.2-.9.23l-.59.09c-.19.03-.37.05-.57.07-.19.02-.37.02-.53,0s-.29-.08-.38-.17c-.09-.08-.13-.22-.11-.42v-.14l.04.03.02.02Z"/>
      <path class="st5" d="M414.48,265.49c.02-.07.03-.13.02-.19s0-.1.02-.14v-.12l.02-.14v-.19s.02-.11.04-.18v-.05s.02-.11.05-.23c.04-.13.07-.27.11-.42.05-.15.08-.29.11-.42.04-.13.05-.21.05-.23.02-.08.06-.25.1-.51s.1-.56.17-.91.14-.73.2-1.12c.07-.4.14-.77.19-1.12.07-.35.11-.66.17-.93.05-.26.08-.44.09-.52,0-.05.02-.17.07-.35.05-.18.09-.37.15-.57.06-.21.11-.41.17-.6s.09-.34.11-.44c.06-.19.15-.33.28-.46.13-.12.32-.2.55-.22.12-.02.23-.02.34-.02.1,0,.19.05.24.15v1.15c0,.13,0,.22.03.27,0,.08,0,.19.03.34.02.14.04.29.05.44s.04.29.05.41c.02.12.03.2.03.22s.03.12.07.29c.05.16.11.35.18.57s.14.42.2.63.13.37.18.49c0,0,0,.06.04.15.02.09.06.19.11.29.05.11.11.2.18.28s.14.12.23.1c.07,0,.13-.04.19-.09s.11-.12.17-.19.09-.15.13-.22c.04-.08.07-.13.09-.17.07-.13.19-.32.34-.57l.45-.75c.15-.25.28-.47.4-.67.11-.2.18-.32.19-.34.05-.05.12-.19.23-.4s.23-.46.35-.7c.13-.25.24-.49.34-.71s.18-.36.2-.42c.05-.07.1-.18.19-.32.07-.15.17-.29.27-.44.1-.15.22-.28.35-.4s.28-.19.43-.21c.43-.05.71.07.83.37l-.05.44c0,.1-.02.21-.02.32v.66c0,.1,0,.21-.04.31l-.04.42c-.04.59-.07,1.17-.1,1.75-.04.58-.07,1.16-.12,1.74s-.12,1.16-.2,1.74c-.09.58-.21,1.16-.36,1.74-.12.12-.24.22-.36.32s-.26.15-.43.18c-.21.02-.37-.02-.49-.13l.07-.79c.02-.49.07-.96.13-1.44s.11-.95.13-1.43l.04-.19v-.16c0-.08,0-.17-.03-.26s-.02-.18-.03-.25v-.16s-.04,0-.07-.02c-.12.02-.25.12-.38.29-.13.19-.28.41-.43.67-.16.26-.33.56-.5.86-.19.32-.38.61-.59.88s-.44.5-.68.7c-.24.19-.51.31-.79.35-.23.03-.42-.02-.57-.12-.15-.11-.27-.25-.37-.43s-.19-.37-.26-.59-.14-.41-.2-.59-.15-.33-.23-.45c-.08-.12-.19-.17-.32-.15h-.05s-.04.06-.07.14c-.04.08-.07.14-.07.19-.19.63-.34,1.27-.48,1.9-.13.63-.26,1.26-.38,1.89-.06.15-.17.27-.33.38s-.33.17-.52.19c-.12.02-.22,0-.32-.06-.09-.05-.17-.11-.25-.16v-.15h-.02Z"/>
      <path class="st5" d="M424.68,263.56l.04-.05v-.06c0-.08.03-.2.06-.36.03-.15.06-.32.09-.48s.07-.31.1-.45c.04-.14.07-.23.1-.28l.32-5.2c-.16-.22-.26-.39-.32-.52s-.07-.3-.04-.52c.02-.15.06-.29.11-.39s.2-.19.46-.27c.91-.23,1.82-.39,2.72-.48s1.83-.12,2.79-.11h1.27c.23.02.47.03.72.06s.47.08.68.14c.2.06.36.15.48.28.12.12.18.27.17.46,0,.12-.07.22-.21.29-.15.07-.29.11-.44.12h-.76c-.35,0-.73.02-1.16.02-.39,0-.75.02-1.09,0h-.71c-.52.02-.97.05-1.34.09s-.67.13-.91.26c-.24.13-.42.32-.54.58-.12.25-.19.59-.22,1l-.02.08v.15l-.02.24.02.02c.12.11.29.17.49.2s.42.05.62.05h.3c.45.02.89,0,1.33-.02s.89-.05,1.35-.08c.45-.04.88-.07,1.32-.09.44-.03.87-.04,1.32-.02.48,0,.71.19.71.56-.02.19-.18.33-.46.44-.29.11-.65.19-1.1.24s-.94.08-1.48.1-1.07.02-1.6.02c-.37,0-.71.02-1.04.02s-.62.02-.88.05-.48.05-.65.09c-.18.04-.3.09-.36.16v.02c-.05.29-.08.53-.11.75s-.06.42-.07.6c-.02.19-.05.38-.07.58-.02.19-.04.41-.05.65l-.02.66v.02c.07.05.13.08.15.12s.07.05.15.05h.3c.84.02,1.66-.07,2.49-.29s1.59-.47,2.28-.78c.07-.02.16-.05.23-.08s.15-.07.2-.12c.21-.11.42-.19.62-.27s.41-.11.61-.11c.26,0,.43.06.51.16s.12.24.11.41c0,.24-.18.46-.5.67-.33.21-.72.39-1.21.57-.48.18-1.02.32-1.62.46s-1.16.24-1.7.33-1.03.15-1.46.2c-.44.05-.74.07-.92.06l-.6-.02c-.19,0-.38-.02-.58-.03-.19-.02-.37-.05-.54-.11-.16-.05-.29-.13-.38-.24-.09-.1-.13-.25-.11-.43v-.14l.06-.02h.01Z"/>
      <path class="st5" d="M435.12,262.01c.13-.11.35-.14.66-.09.02,0,.07.02.15.04.07.02.13.03.17.04.23.25.48.51.75.76s.57.47.89.68.66.39,1.01.53.73.25,1.14.32c.2.03.46.04.76.02s.62-.05.96-.11c.33-.05.67-.12,1.01-.22.34-.08.64-.19.91-.32s.49-.26.67-.41.27-.31.28-.49c0-.2-.07-.4-.21-.59-.16-.19-.35-.38-.59-.54s-.49-.31-.76-.43-.5-.2-.7-.25l-4.49-1.09c-.26-.05-.52-.12-.76-.22s-.46-.22-.67-.35c-.19-.14-.35-.3-.46-.47s-.16-.37-.14-.58c0-.32.16-.6.43-.86s.62-.49,1.05-.7c.43-.2.91-.38,1.44-.52.53-.14,1.07-.25,1.61-.33.54-.08,1.05-.12,1.55-.14.49-.02.91,0,1.26.06.23.04.46.11.7.22.24.11.45.25.62.4s.33.32.44.51.16.37.15.54c0,.15-.05.27-.13.35-.08.09-.23.12-.45.08-.16-.02-.31-.06-.45-.12s-.29-.11-.43-.17-.29-.12-.44-.17-.31-.09-.46-.12c-.43-.06-.85-.08-1.25-.05s-.81.09-1.18.19-.74.22-1.09.38c-.34.15-.67.32-.97.51,0,.02-.02.05-.05.1,0,.1.06.18.18.22.11.05.23.1.35.15l3.47.69c.46.11.94.26,1.45.46s.97.44,1.38.73c.42.29.75.6,1.02.96s.39.74.38,1.16c-.05.57-.27,1.06-.69,1.5-.41.42-.92.77-1.53,1.03-.6.25-1.28.43-2.02.52s-1.46.08-2.16-.03c-.29-.05-.61-.12-.97-.22-.36-.1-.73-.23-1.11-.39s-.73-.32-1.1-.52c-.35-.19-.67-.4-.95-.63s-.49-.47-.65-.73-.23-.52-.2-.79c.02-.22.1-.39.23-.49h-.03.02Z"/>
      <path class="st5" d="M450.29,263.65c.07-.41.16-.81.24-1.21.08-.39.17-.79.25-1.2s.15-.81.19-1.22v-.49c0-.06-.03-.1-.07-.12-.05-.02-.09-.02-.14-.03-.25-.05-.5-.06-.74-.05-.24,0-.49.02-.73.05s-.49.04-.73.05-.49,0-.74-.05l-.66-.12c-.25-.12-.42-.24-.51-.36-.08-.12-.12-.28-.11-.45,0-.08.12-.15.38-.22.25-.06.59-.12,1-.17.42-.05.89-.09,1.42-.13.54-.04,1.09-.06,1.67-.08.58-.02,1.15-.03,1.73-.03h1.59c.48,0,.9.02,1.26.03s.6.03.74.06c.15.02.31.06.46.1s.3.09.43.15c.12.06.22.15.3.25s.1.23.09.38c0,.21-.1.35-.27.44-.17.08-.38.12-.65.13-.26,0-.55,0-.85-.05s-.62-.08-.93-.11-.59-.05-.85-.05-.47.05-.63.15c-.14.08-.28.25-.4.49s-.24.53-.35.86-.2.69-.3,1.06c-.08.38-.17.75-.23,1.1-.07.36-.11.69-.15.99s-.05.52-.05.69c-.02.22-.02.46,0,.68.03.22.06.45.09.68s.07.46.1.68c.04.22.05.45.04.68,0,.19-.07.32-.19.4-.11.08-.31.09-.57.05-.32-.05-.57-.16-.74-.33-.18-.16-.31-.36-.39-.58s-.13-.46-.15-.71-.02-.49,0-.71l.02-.42c.02-.43.07-.85.15-1.26h-.02Z"/>
      <path class="st5" d="M456.42,267.63l.04-.05v-.06c0-.08.03-.2.06-.35s.06-.31.09-.46.07-.3.1-.43c.04-.13.07-.22.1-.26l.31-5.15c-.15-.24-.26-.43-.31-.57-.06-.14-.07-.32-.04-.52.02-.15.06-.28.1-.37s.19-.16.45-.19c.89-.08,1.78-.11,2.67-.05s1.79.16,2.73.33c.06,0,.11.02.18.02s.14.02.23.04c.06,0,.11,0,.17.02.07.02.14.02.21.04l.45.08c.23.04.46.1.71.16s.46.15.66.25c.19.09.35.22.47.35s.18.3.17.48c0,.12-.07.21-.21.25s-.28.06-.43.05c-.15-.03-.4-.07-.74-.12s-.72-.1-1.13-.16c-.38-.05-.73-.1-1.06-.16-.33-.05-.56-.09-.71-.12-.51-.06-.95-.11-1.31-.12s-.66.02-.89.12c-.23.09-.41.26-.52.49s-.19.56-.22.96l-.02.08v.15l-.02.23.02.02c.12.12.28.22.48.28s.41.11.61.15l.3.05c.44.08.86.14,1.3.19.43.05.86.08,1.32.12.44.03.86.07,1.29.11s.85.1,1.29.18c.46.08.7.31.69.66-.02.19-.17.3-.45.37s-.63.08-1.07.07-.92-.06-1.45-.13-1.05-.15-1.56-.23c-.36-.05-.7-.09-1.02-.14s-.61-.08-.86-.09c-.26-.02-.46-.02-.64-.02s-.29.05-.35.11v.02c-.05.28-.07.52-.1.73s-.06.41-.07.59-.05.37-.07.56-.04.41-.05.64l-.02.66v.02c.07.06.12.11.15.14s.07.05.15.07l.3.05c.82.15,1.63.19,2.43.1s1.55-.22,2.24-.42c.07-.02.15-.03.23-.05.07-.02.14-.05.19-.08.2-.07.41-.13.61-.17s.4-.05.59,0c.25.05.42.13.5.25s.12.25.1.42c0,.24-.18.43-.49.59s-.71.29-1.18.38c-.47.1-1,.17-1.58.21s-1.13.06-1.65.06-1,0-1.43-.02-.72-.05-.9-.08l-.59-.11c-.19-.03-.37-.08-.57-.12s-.36-.12-.52-.19-.28-.18-.37-.3-.13-.27-.1-.45v-.14h0v-.02Z"/>
      <path class="st5" d="M466.38,269.64s.02-.09.02-.15v-.52l.04-.2.02-.28c0-.1.02-.21.03-.32s0-.22,0-.32l.04-.16c0-.07.04-.22.08-.45.05-.23.09-.5.15-.81.06-.32.11-.65.17-1s.11-.68.17-1c.06-.32.1-.59.15-.82s.07-.39.08-.46c.04-.21.05-.4.04-.58s.05-.35.17-.52c.05-.07.19-.12.42-.15s.52-.05.85-.05.71,0,1.1.02c.4.02.78.04,1.16.07.37.03.71.06,1.01.08.3.03.52.05.68.08.23.05.49.11.8.19.31.08.59.18.88.3.28.12.53.26.75.42.21.17.35.35.41.56v.62c-.04.42-.16.76-.36,1.03-.21.27-.51.53-.9.79-.63.31-1.26.59-1.9.86s-1.26.56-1.86.87v.12c0,.21.07.42.27.61.19.19.43.38.72.56s.61.35.96.51.66.32.97.47.55.31.75.46.3.31.3.47c-.02.08-.07.14-.16.17-.08.04-.18.05-.3.05s-.23-.02-.35-.03c-.12-.02-.21-.03-.3-.05-.5-.09-.96-.23-1.37-.42-.42-.19-.81-.4-1.16-.65-.36-.25-.7-.52-1.02-.81s-.63-.59-.94-.9c-.07-.05-.14-.08-.19-.1-.05-.02-.11-.03-.19-.04-.13-.02-.21-.02-.26.02-.02.07-.05.19-.08.37s-.07.36-.1.56c-.04.19-.07.38-.11.56-.04.18-.07.3-.07.38-.04.18-.08.32-.17.41s-.25.11-.54.06c-.25-.05-.43-.13-.52-.25s-.19-.26-.26-.42l.02-.21-.07-.02-.03.02ZM468.58,266.6s.06.04.07.04c.15.03.38,0,.68-.09s.63-.22.99-.39.73-.35,1.11-.57.72-.43,1.03-.65.57-.42.76-.61c.2-.19.31-.34.31-.46,0-.08,0-.14-.02-.19s-.07-.11-.19-.15l-.15-.03s-.09-.02-.14-.03c-.05-.02-.12-.03-.2-.05l-.08-.02c-.98-.19-1.76-.29-2.31-.29s-.97.08-1.23.29c-.27.2-.45.5-.52.92-.07.41-.14.94-.18,1.59v.62s.06.08.1.08h-.03Z"/>
    </g>
  </g>
  <path class="st7" d="M267.13,135.6l-5.8,1c.29-2.37.57-4.69.86-7,.21-2,.41-4,.59-6s.34-3.72.48-5.16h-9.34l-4.3,15.47c-1.57.21-3.43.45-5.58.7l-6,.7c-2.29.28-4.55.57-6.77.86,2.87-9.53,5.7-18.91,8.49-28.15,1.14-3.86,2.34-7.91,3.6-12.14,1.26-4.23,2.51-8.44,3.76-12.62,1.25-4.19,2.45-8.21,3.6-12.08,1.14-3.87,2.15-7.41,3-10.64,4.85-.36,9.81-.8,14.86-1.31,5.05-.51,9.98-1.18,14.77-2-.21,2.3-.45,5.14-.7,8.54-.25,3.4-.48,7.11-.69,11.12s-.43,8.2-.65,12.57-.43,8.66-.64,12.89c-.36,9.88-.76,20.37-1.19,31.47-2.14.36-4.29.65-6.44.86l-5.91.92h0ZM256.5,107.67h1.55l2.37-.11,2.31-.11c.5,0,1.01-.06,1.5-.16,0-.43,0-1.16.16-2.2s.22-2.22.32-3.55.24-2.77.38-4.35.29-3.11.43-4.62c.32-3.71.68-7.67,1.07-11.86l.65-9.35-1.61.11-2.47,9.24s-6.66,26.96-6.66,26.96Z"/>
  <path class="st7" d="M280.56,137.32c2.15-10.31,4.19-20.31,6.12-30,.72-4.15,1.49-8.44,2.31-12.89s1.59-8.82,2.31-13.13c.71-4.33,1.35-8.48,1.93-12.46.58-4,1-7.57,1.29-10.8.93.08,1.72.11,2.37.11h5.9c1.43,0,2.87-.09,4.3-.16l4.62-.22c1,5.02,1.89,9.85,2.68,14.5.79,4.09,1.6,8.27,2.42,12.57s1.56,7.95,2.2,11c.29-1.43.61-3.1,1-5s.75-3.88,1.18-6,.84-4.17,1.24-6.28.8-4.21,1.23-6.29c1-4.67,2.04-9.46,3.12-14.39l13.1-1.61c-2.43,10.95-4.57,21.34-6.44,31.15-.86,4.23-1.7,8.5-2.53,12.83s-1.6,8.48-2.31,12.47c-.71,4-1.31,7.69-1.82,11.06-.5,3.4-.9,6.25-1.18,8.54-.85.11-1.7.27-2.53.48l-5.07,1.08-5.69,1.29c-1.44.3-2.85.69-4.24,1.18-.43-5.73-.9-11.17-1.4-16.33-.21-2.22-.45-4.49-.7-6.82s-.52-4.56-.8-6.71-.58-4.15-.86-6-.58-3.47-.86-4.83c-.22,1.36-.5,2.94-.86,4.73s-.72,3.69-1.08,5.69-.71,4.1-1.07,6.28-.75,4.28-1.18,6.29c-.93,4.8-1.93,9.8-3,15l-15.7,3.67h0Z"/>
  <path class="st7" d="M373.85,121.15c-1.49,3.2-3.61,6.06-6.23,8.43-2.69,2.41-5.83,4.27-9.24,5.48-3.67,1.31-7.54,1.97-11.44,1.94-3.01-.04-5.96-.83-8.59-2.31-3.23-1.86-6.05-4.37-8.27-7.36l7.92-15.58c.6,1.06,1.36,2.02,2.25,2.85,1.02.98,2.15,1.83,3.38,2.52,1.2.69,2.46,1.29,3.76,1.78,1.08.43,2.23.66,3.39.69.91,0,1.81-.15,2.68-.43.93-.28,1.8-.71,2.58-1.28.75-.54,1.39-1.22,1.88-2,.48-.79.72-1.7.7-2.63,0-1.74-.59-3.42-1.67-4.78-1.2-1.56-2.58-2.97-4.13-4.19-1.65-1.33-3.44-2.67-5.37-4-1.87-1.31-3.65-2.74-5.32-4.3-1.6-1.47-2.99-3.15-4.13-5-1.15-1.87-1.75-4.03-1.72-6.23,0-3.73,1.17-7.38,3.33-10.42,2.26-3.28,5.11-6.13,8.39-8.39,3.36-2.34,7.03-4.2,10.9-5.53,3.59-1.28,7.37-1.96,11.18-2,1.85,0,3.68.22,5.47.69,1.63.41,3.14,1.17,4.45,2.22,1.27,1.07,2.3,2.41,3,3.92.81,1.86,1.19,3.88,1.13,5.91,0,1.01-.09,2.01-.27,3-.18,1-.34,2.07-.48,3.22l-15.58,4.51c.14-.57.27-1.14.38-1.72.1-.57.16-1.14.16-1.72.13-1.64-.26-3.27-1.13-4.67-.69-.94-1.79-1.48-2.95-1.45-.74.04-1.46.27-2.1.65-.88.46-1.71,1.02-2.47,1.66-.83.69-1.53,1.5-2.09,2.42-.57.9-.87,1.94-.86,3-.06,1.56.46,3.09,1.45,4.3,1.05,1.23,2.26,2.31,3.59,3.22,1.44,1,3,2,4.68,3.06,1.75,1.09,3.32,2.44,4.67,4,1.54,1.84,2.76,3.93,3.6,6.18,1.06,3.02,1.55,6.2,1.45,9.4.05,3.78-.74,7.51-2.33,10.94h0Z"/>
  <path class="st7" d="M379.17,137.21l8.16-76.27c3.19-.11,6.37-.45,9.51-1,2.93-.53,5.89-.9,8.86-1.12,0,.07-.11.8-.33,2.2s-.5,3.22-.85,5.48-.76,4.79-1.19,7.62-1.05,6.72-1.88,11.66-1.91,11.78-3.27,20.51h1.61c1.86-6.58,3.4-11.97,4.62-16.16,1.22-4.19,2.2-7.6,2.95-10.21s1.47-5.13,2.15-7.57,1.32-4.7,1.93-6.77,1.09-3.83,1.45-5.26h1c1.31,0,2.62-.07,3.92-.22,1.33-.14,2.58-.3,3.76-.48s2.42-.41,3.71-.7c-.24,1.32-.4,2.66-.49,4-.18,2-.41,4.42-.69,7.25s-.57,5.95-.86,9.34c-.29,3.41-.57,6.74-.86,10-.29,3.26-.56,6.36-.81,9.29-.25,2.94-.48,5.45-.7,7.52h1.94l10.19-46.24c2.43-.35,4.83-.68,7.2-1,2.07-.29,4.22-.57,6.44-.86s4.19-.61,5.91-1c-1.07,3.01-2.15,6.36-3.22,10.05-1.07,3.69-2.18,7.6-3.33,11.73-1.15,4.08-2.25,8.2-3.28,12.35s-2.05,8.15-3.06,12c-2.29,9.17-4.51,18.58-6.66,28.25l-24.28,4.09,4.73-41.47h-1.29l-10.63,39-22.36,3.99h0Z"/>
  <path class="st7" d="M440.18,136.89l14.07-76.38,33.94-2.9c-.5,1.58-.93,3.19-1.29,4.84-.36,1.36-.69,2.77-1,4.24s-.59,2.78-.8,3.92c-.72.07-1.74.13-3.06.16l-4.25.11c-1.5,0-3,.05-4.56.05h-4l-3.76,19.23c2.22-.14,4.3-.25,6.23-.32,1.57-.07,3.19-.11,4.83-.11s2.87,0,3.66-.11c-.29,2-.56,3.97-.81,5.91s-.56,3.91-.91,5.91c-.72.07-1.88.13-3.49.16s-3.24.09-4.89.16l-6.12.22-3.66,19.76,15.69-2.47-1.08,12.25-34.74,5.37h0Z"/>
  <path class="st7" d="M476.38,136.89c1.93-9.53,3.81-18.82,5.62-27.89.67-3.87,1.38-7.89,2.15-12.08s1.5-8.34,2.2-12.47c.67-4.11,1.31-8.08,1.94-11.92.6-3.83,1.09-7.32,1.45-10.47,4.31-1.34,8.73-2.29,13.21-2.85,4.66-.62,9.35-.93,14.05-.95,2.35-.06,4.69.28,6.93,1,1.64.53,3.11,1.47,4.27,2.74,1.04,1.19,1.8,2.61,2.21,4.14.45,1.72.66,3.49.64,5.26,0,2.88-.51,5.74-1.5,8.44-1.01,2.77-2.35,5.4-4,7.84-1.68,2.46-3.62,4.73-5.8,6.76-2.09,1.98-4.45,3.67-7,5,1.29,2.86,2.67,5.99,4.14,9.4,1.47,3.41,2.84,6.65,4.13,9.72,1.44,3.58,2.9,7.16,4.41,10.74l-16.65,5.8c-1.44-4.58-2.72-8.88-3.87-12.89-.5-1.64-1-3.35-1.5-5.1s-1-3.42-1.4-5-.79-3-1.07-4.24c-.25-1.01-.43-2.03-.54-3.06l-1.4.43c-.43,2.29-.95,4.97-1.55,8.06-.6,3.09-1.16,6.06-1.67,8.91-.67,3.37-1.31,6.78-1.93,10.21l-17.47,4.47h0ZM501.62,90.27c1.76-.27,3.45-.86,5-1.72,1.99-1.01,3.88-2.22,5.64-3.6,1.68-1.29,3.23-2.75,4.62-4.35,1.09-1.07,1.78-2.48,1.94-4,.03-.71-.25-1.39-.76-1.88-.6-.51-1.3-.87-2.06-1.05-.98-.26-1.99-.43-3-.48-1.07-.07-2.18-.11-3.33-.11-.78,0-1.59,0-2.41.06s-1.56,0-2.2,0c0,0-3.44,17.13-3.44,17.13Z"/>
  <path class="st7" d="M277.21,208.91c-1.92,2.69-4.15,5.14-6.66,7.3-2.08,1.82-4.45,3.29-7,4.35-2.18.9-4.52,1.37-6.88,1.4-2.12.02-4.21-.49-6.07-1.5-1.93-1.11-3.57-2.66-4.78-4.52-1.48-2.28-2.59-4.78-3.27-7.41-.88-3.36-1.3-6.83-1.24-10.31,0-6.74.94-13.44,2.79-19.92,1.73-6.25,4.37-12.2,7.85-17.67,3.12-4.97,7.2-9.26,12-12.63,4.48-3.14,9.83-4.81,15.31-4.78,1.71,0,3.39.37,4.94,1.08,1.56.7,2.95,1.72,4.08,3,1.2,1.38,2.12,2.97,2.72,4.7.7,2,1.03,4.11,1,6.23v1.35c0,.49-.03.97-.1,1.45l-14.08,3.75c-.86-1.78-1.86-2.68-3-2.68-1.42.14-2.73.86-3.6,2-1.43,1.57-2.68,3.29-3.71,5.15-1.31,2.3-2.49,4.66-3.54,7.09-1.15,2.62-2.15,5.25-3,7.9s-1.55,5.17-2.1,7.57c-.47,1.92-.74,3.88-.8,5.85,0,2.3.3,3.91.91,4.84.5.86,1.42,1.39,2.42,1.39.96-.05,1.89-.37,2.68-.91,1.05-.64,1.99-1.44,2.8-2.36.89-1.01,1.68-2.11,2.36-3.28.68-1.13,1.19-2.36,1.5-3.65l12.26,4.96c-1.55,3.62-3.49,7.06-5.79,10.26h0Z"/>
  <path class="st7" d="M315.18,220.56l-5.8,1c.29-2.36.57-4.69.86-7,.22-2,.41-4,.59-6s.34-3.72.49-5.15h-9.32l-4.3,15.47c-1.57.21-3.43.44-5.58.69s-4.15.48-6,.7l-6.76.86c2.86-9.52,5.69-18.9,8.48-28.14,1.15-3.87,2.35-7.92,3.6-12.14s2.51-8.43,3.76-12.62l3.6-12.09c1.14-3.86,2.14-7.4,3-10.63,4.86-.36,9.82-.79,14.87-1.29s9.98-1.17,14.77-2c-.21,2.29-.45,5.14-.7,8.54s-.48,7.11-.69,11.12-.43,8.2-.65,12.56-.43,8.67-.64,12.9c-.36,9.88-.75,20.37-1.18,31.47-2.15.36-4.3.64-6.45.86-1.83.21-3.8.54-5.95.89h0ZM304.55,192.64c.28,0,.8-.02,1.56-.06l2.36-.11,2.31-.1c.5,0,1-.07,1.5-.16,0-.43.06-1.17.16-2.21s.22-2.21.33-3.54.23-2.77.37-4.35.29-3.12.43-4.62c.29-3.65.65-7.59,1.08-11.82l.64-9.34-1.61.11-2.47,9.23-6.66,26.97h0Z"/>
  <path class="st7" d="M324.85,221.1c3.15-9.52,6.15-18.85,9-28,1.22-3.87,2.47-7.92,3.76-12.14s2.58-8.41,3.87-12.57c1.29-4.15,2.49-8.15,3.6-12s2.09-7.43,2.95-10.74c3.73,0,7.46-.21,11.17-.65,3.51-.43,7.3-.83,11.39-1.18-.21,1.58-.45,3.35-.7,5.32s-.54,4-.86,6.18-.66,4.36-1,6.65-.79,5.23-1.29,8.81-1.18,8.06-2,13.43h1.4c2.07-5.44,3.79-9.97,5.15-13.59l3.33-8.86c.86-2.29,1.74-4.53,2.64-6.71.89-2.19,1.75-4.26,2.57-6.23s1.6-3.71,2.31-5.21c1.79-.15,3.48-.33,5-.54s3.15-.45,4.73-.7l4.78-.75c1.61-.25,3.38-.55,5.32-.91-.72,4.15-1.4,8.41-2.05,12.78s-1.22,8.71-1.71,13c-.51,4.33-1,8.61-1.45,12.84s-.87,8.23-1.24,12c-.86,8.88-1.61,17.55-2.26,26l-18.69,3.33c0-.36.06-1.32.17-2.9s.25-3.51.43-5.8.42-4.83.75-7.63l1-8.37c.33-2.8.66-5.5,1-8.11s.72-4.85,1.08-6.72h-1c-1,3.01-2.11,6.18-3.33,9.51s-2.44,6.71-3.67,10.16c-1.26,3.44-2.5,6.81-3.71,10.1s-2.29,6.44-3.22,9.45c-2.51.07-4.66.16-6.45.27l-6.23.37,3.44-39.85h-1.61c-.15.93-.5,2.49-1.08,4.68s-1.23,4.69-2,7.51-1.56,5.77-2.42,8.81-1.66,5.87-2.42,8.49-1.38,4.76-1.88,6.44-.79,2.63-.86,2.85l-17.71,1.18h0Z"/>
  <path class="st7" d="M394.24,221.85c2.15-9.66,4.19-19.11,6.12-28.35.79-3.87,1.61-7.96,2.47-12.25.86-4.29,1.68-8.52,2.47-12.68.79-4.15,1.54-8.15,2.26-12s1.33-7.39,1.83-10.63c2.07-.65,4.11-1.2,6.12-1.67s4.06-.87,6.17-1.23c1.98-.35,3.99-.53,6-.54,2.79-.09,5.56.46,8.11,1.61,2.09,1.01,3.91,2.5,5.31,4.35,1.4,1.91,2.39,4.09,2.9,6.4.59,2.57.88,5.2.86,7.84,0,3.97-.74,7.91-2.2,11.6-1.41,3.61-3.4,6.97-5.91,9.93-2.37,2.82-5.25,5.17-8.48,6.93-3.04,1.68-6.46,2.57-9.94,2.58h-1.18c-.57,2.44-1.11,5.09-1.61,7.95s-.93,5.53-1.29,8c-.5,2.86-1,5.73-1.4,8.59l-18.61,3.57h0ZM421.85,168.9c-.79,4.22-1.65,8.73-2.58,13.53,1.33-.39,2.56-1.07,3.6-2,1.37-1.17,2.55-2.55,3.49-4.08,1.13-1.82,2-3.79,2.58-5.85.66-2.27,1-4.63,1-7,0-2.67-.59-4.67-1.77-6-.94-1.22-2.38-1.95-3.92-2-.83,4.71-1.63,9.18-2.4,13.4h0Z"/>
  <path class="st7" d="M475.72,211.22c-1.71,2.73-3.89,5.13-6.45,7.09-2.37,1.81-5.04,3.19-7.89,4.08-2.71.85-5.54,1.28-8.38,1.29-1.71,0-3.42-.28-5.05-.81-1.68-.51-3.24-1.33-4.62-2.41-1.39-1.12-2.54-2.51-3.38-4.09-.94-1.79-1.4-3.78-1.35-5.8v-.86c0-.29.04-.57.11-.85.29-2.94.76-6.49,1.4-10.64.64-4.15,1.31-8.49,2-13,.71-4.51,1.5-9.03,2.36-13.58s1.63-8.68,2.31-12.41c.67-3.72,1.26-6.82,1.77-9.29.5-2.47.82-4,1-4.57l5.37-.53c2.08-.22,4.01-.4,5.8-.54l6.55-.65c-1.86,8.67-3.51,16.51-4.94,23.53-.64,3-1.27,6-1.88,9s-1.18,5.77-1.72,8.27-1,4.67-1.39,6.5l-1,4.46c-.25,1.14-.54,2.59-.86,4.35-.3,1.58-.46,3.18-.48,4.78-.04,1.02.26,2.02.86,2.85.49.71,1.29,1.12,2.15,1.12,1.17.02,2.29-.52,3-1.45.84-1.05,1.52-2.23,2-3.49.53-1.33.93-2.72,1.18-4.13.25-1.4.49-2.49.7-3.28.43-2.08.92-4.39,1.45-6.93.54-2.54,1.07-5.19,1.61-7.95s1.08-5.56,1.61-8.43,1.06-5.65,1.56-8.38c1.22-6.3,2.4-12.82,3.54-19.55l16.34-1.05c-.71,3.72-1.35,7.12-1.93,10.2s-1.21,6.59-1.88,10.53-1.44,8.04-2.31,12.3-1.71,8.45-2.52,12.57c-.83,4.12-1.64,7.9-2.42,11.33-.84,3.68-2.26,7.2-4.22,10.42h0Z"/>
  <path class="st7" d="M525.56,206.12c-1.5,3.19-3.62,6.06-6.23,8.43-2.7,2.41-5.83,4.27-9.24,5.48-3.67,1.32-7.54,1.99-11.44,1.97-3.01-.04-5.97-.83-8.6-2.31-3.23-1.86-6.05-4.37-8.27-7.36l8-15.57c.6,1.06,1.36,2.02,2.26,2.84,1.02.98,2.15,1.83,3.38,2.53,1.2.69,2.46,1.28,3.76,1.77,1.08.43,2.22.67,3.38.7.91,0,1.82-.15,2.69-.43.92-.29,1.8-.72,2.58-1.29.75-.53,1.39-1.21,1.88-2,.47-.79.72-1.71.7-2.63,0-1.74-.6-3.42-1.67-4.78-1.2-1.56-2.59-2.97-4.13-4.19-1.65-1.33-3.44-2.67-5.38-4-1.87-1.31-3.64-2.74-5.31-4.29-1.6-1.49-2.99-3.19-4.14-5.05-1.15-1.87-1.74-4.03-1.72-6.23,0-3.73,1.17-7.38,3.33-10.42,2.25-3.25,5.08-6.08,8.33-8.33,3.36-2.34,7.03-4.2,10.9-5.53,3.59-1.28,7.36-1.96,11.17-2,1.85,0,3.69.23,5.48.7,1.63.42,3.15,1.2,4.46,2.26,1.27,1.07,2.3,2.41,3,3.92.81,1.86,1.19,3.87,1.12,5.9,0,1.01-.09,2.01-.26,3-.18,1-.35,2.08-.49,3.22l-15.57,4.52c.14-.58.26-1.15.37-1.72s.16-1.14.16-1.72c.14-1.64-.26-3.27-1.12-4.67-.7-.95-1.82-1.49-3-1.45-.74.05-1.45.27-2.09.64-.88.47-1.71,1.03-2.47,1.67-.83.68-1.54,1.49-2.1,2.41-.56.9-.86,1.94-.86,3-.05,1.56.46,3.09,1.45,4.3,1.06,1.22,2.27,2.3,3.6,3.22,1.43,1,2.98,2.02,4.67,3.06,1.75,1.09,3.33,2.44,4.68,4,1.54,1.84,2.76,3.93,3.59,6.18,1.06,3.01,1.55,6.2,1.45,9.39.04,3.75-.74,7.45-2.3,10.86h0Z"/>
  <path class="st8" d="M261.67,131.89l-5.8,1c.28-2.36.57-4.69.85-7,.22-2,.42-4,.6-6,.17-2,.33-3.72.48-5.15h-9.35l-4.29,15.47c-1.58.21-3.44.45-5.59.69l-6,.7-6.77.86c2.86-9.52,5.69-18.9,8.48-28.14,1.15-3.87,2.35-7.92,3.6-12.14l3.76-12.62,3.6-12.08c1.15-3.87,2.15-7.41,3-10.64,4.87-.36,9.83-.79,14.88-1.29,5.05-.5,9.97-1.17,14.77-2-.22,2.29-.45,5.14-.7,8.54s-.49,7.11-.7,11.12-.43,8.2-.65,12.57-.42,8.66-.64,12.89c-.36,9.88-.75,20.37-1.18,31.47-2.15.36-4.3.64-6.45.86l-5.9.89h0ZM251,104c.29,0,.81-.02,1.56-.06l2.36-.1,2.31-.11c.51-.01,1.01-.07,1.51-.16,0-.43.05-1.17.16-2.2s.21-2.22.32-3.55.23-2.77.38-4.35.28-3.11.42-4.62c.29-3.65.65-7.59,1.08-11.81l.64-9.35-1.61.11-2.44,9.2-6.69,27h0Z"/>
  <path class="st8" d="M275.09,133.6c2.15-10.31,4.2-20.31,6.13-30,.71-4.16,1.48-8.45,2.3-12.9s1.6-8.82,2.31-13.15,1.36-8.49,1.94-12.46,1-7.58,1.29-10.8c.93.07,1.72.11,2.36.11h5.91c1.44,0,2.86-.09,4.29-.17l4.62-.21c1.01,5.01,1.9,9.85,2.69,14.5.79,4.08,1.6,8.27,2.42,12.57.82,4.29,1.55,8,2.2,11,.28-1.43.61-3.09,1-5s.76-3.88,1.19-6,.84-4.17,1.23-6.29.81-4.2,1.24-6.28c1-4.67,2.04-9.46,3.11-14.39l13.11-1.62c-2.44,10.96-4.59,21.35-6.45,31.16-.86,4.22-1.7,8.5-2.52,12.83-.82,4.33-1.6,8.5-2.35,12.5-.72,4-1.33,7.69-1.83,11.07-.5,3.4-.89,6.24-1.18,8.54-.85.11-1.69.27-2.52.48l-5.05,1.13-5.7,1.29c-1.44.3-2.85.69-4.24,1.18-.43-5.73-.89-11.17-1.4-16.33-.21-2.22-.44-4.49-.69-6.82-.26-2.33-.52-4.57-.81-6.71s-.57-4.16-.86-6-.57-3.47-.86-4.83c-.21,1.36-.5,2.93-.86,4.72s-.71,3.69-1.07,5.7-.72,4.1-1.08,6.28-.75,4.28-1.18,6.28c-.93,4.8-1.93,9.8-3,15l-15.69,3.62h0Z"/>
  <path class="st8" d="M368.38,117.44c-1.49,3.2-3.61,6.07-6.23,8.43-2.69,2.41-5.83,4.27-9.23,5.48-3.67,1.31-7.54,1.96-11.44,1.93-3.01-.04-5.97-.83-8.6-2.31-3.23-1.86-6.05-4.37-8.27-7.36l7.95-15.61c.6,1.06,1.36,2.02,2.26,2.85,1.02.97,2.16,1.82,3.38,2.52,1.2.7,2.46,1.29,3.76,1.77,1.08.43,2.22.67,3.38.7.91,0,1.82-.15,2.69-.43.93-.28,1.8-.72,2.58-1.29.75-.54,1.39-1.22,1.88-2,.47-.79.71-1.71.69-2.63,0-1.73-.59-3.42-1.66-4.78-1.21-1.56-2.6-2.97-4.14-4.19-1.64-1.33-3.43-2.67-5.37-4-1.87-1.31-3.64-2.75-5.31-4.3-1.6-1.47-2.99-3.15-4.14-5-1.15-1.87-1.75-4.03-1.72-6.22,0-3.73,1.17-7.38,3.33-10.42,2.25-3.25,5.07-6.07,8.33-8.32,3.36-2.34,7.03-4.21,10.9-5.54,3.59-1.28,7.36-1.96,11.17-2,1.85,0,3.69.23,5.48.7,1.63.42,3.15,1.2,4.46,2.26,1.28,1.07,2.3,2.41,3,3.92.82,1.86,1.2,3.88,1.13,5.91,0,1.01-.09,2.01-.27,3-.18,1-.34,2.08-.48,3.23l-15.58,4.51c.15-.58.27-1.15.38-1.72.11-.57.16-1.14.16-1.72,0-2.15-.37-3.71-1.13-4.67-.7-.95-1.82-1.5-3-1.45-.74.05-1.45.27-2.09.64-.88.47-1.71,1.03-2.48,1.67-.83.68-1.53,1.5-2.09,2.41-.56.9-.86,1.94-.86,3-.06,1.56.46,3.09,1.45,4.3,1.06,1.22,2.27,2.3,3.6,3.22,1.43,1,2.99,2.02,4.67,3.06,1.75,1.09,3.32,2.44,4.67,4,1.55,1.84,2.77,3.93,3.6,6.18,1.06,3.01,1.55,6.2,1.45,9.39.07,3.75-.71,7.47-2.26,10.88h0Z"/>
  <path class="st8" d="M373.7,133.5l8.16-76.27c3.19-.11,6.37-.45,9.51-1,2.93-.53,5.89-.91,8.86-1.13,0,.08-.11.81-.32,2.2s-.5,3.23-.86,5.48c-.36,2.25-.75,4.8-1.18,7.63s-1.06,6.69-1.87,11.59-1.92,11.79-3.28,20.52h1.61c1.87-6.59,3.41-11.98,4.62-16.17,1.22-4.18,2.2-7.59,3-10.2s1.46-5.14,2.15-7.57,1.32-4.69,1.93-6.77,1.09-3.83,1.45-5.26h1c1.31,0,2.62-.07,3.92-.22,1.32-.14,2.57-.3,3.76-.48s2.41-.41,3.7-.7c-.14.64-.3,2-.48,4s-.41,4.43-.7,7.25-.57,6-.86,9.35-.57,6.73-.86,10-.55,6.36-.8,9.29-.49,5.44-.7,7.52h1.93l10.21-46.19c2.43-.36,4.82-.69,7.19-1,2.08-.28,4.23-.57,6.45-.85s4.19-.61,5.91-1c-1.08,3.01-2.16,6.35-3.23,10-1.07,3.65-2.18,7.54-3.33,11.66-1.14,4.08-2.24,8.2-3.27,12.35s-2.06,8.16-3.06,12c-2.3,9.17-4.52,18.58-6.66,28.25l-24.36,4.22,4.76-41.47h-1.29l-10.64,39-22.37,3.97h0Z"/>
  <path class="st8" d="M434.71,133.17l14.07-76.37,34-2.9c-.5,1.58-.93,3.19-1.29,4.83-.36,1.37-.7,2.78-1,4.25s-.59,2.77-.81,3.92c-.71.07-1.73.12-3.06.16l-4.24.11h-8.57l-3.81,19.28c2.21-.14,4.29-.25,6.23-.32,1.57-.07,3.18-.11,4.83-.11s2.86,0,3.65-.11c-.29,2-.55,4-.8,5.91s-.56,3.9-.92,5.91c-.71.07-1.88.12-3.49.16s-3.24.09-4.89.16l-6.12.21-3.69,19.74,15.68-2.47-1.07,12.24-34.7,5.4h0Z"/>
  <path class="st8" d="M470.91,133.17c1.93-9.52,3.79-18.83,5.59-27.92.67-3.87,1.38-7.9,2.14-12.09s1.5-8.34,2.21-12.46c.67-4.12,1.31-8.09,1.93-11.92.62-3.83,1.1-7.32,1.45-10.47,4.31-1.34,8.73-2.29,13.21-2.85,4.67-.6,9.37-.91,14.07-.91,2.35-.05,4.69.28,6.93,1,1.64.53,3.13,1.47,4.3,2.74,1.04,1.19,1.8,2.61,2.2,4.14.45,1.72.67,3.49.65,5.26,0,2.88-.52,5.73-1.51,8.43-1,2.77-2.34,5.41-4,7.84-1.67,2.47-3.62,4.74-5.8,6.77-2.09,1.98-4.45,3.66-7,5,1.29,2.86,2.66,5.99,4.13,9.39,1.47,3.4,2.85,6.64,4.14,9.73,1.43,3.58,2.89,7.16,4.4,10.74l-16.65,5.8c-1.43-4.58-2.71-8.88-3.86-12.89-.51-1.65-1.01-3.35-1.51-5.1-.5-1.76-1-3.42-1.39-5s-.79-3-1.08-4.24c-.25-1.01-.43-2.03-.54-3.06l-1.39.43c-.43,2.29-.95,4.98-1.56,8.05s-1.17,6.05-1.66,8.92c-.65,3.36-1.29,6.77-1.94,10.2l-17.46,4.47h0ZM496.15,86.56c1.75-.28,3.45-.86,5-1.72,1.99-1.02,3.88-2.22,5.64-3.6,1.68-1.3,3.23-2.75,4.62-4.35,1.09-1.07,1.77-2.48,1.93-4,.03-.71-.24-1.39-.75-1.88-.61-.52-1.33-.88-2.1-1.07-.96-.26-1.95-.42-2.95-.48-1.08-.07-2.19-.11-3.33-.11h-2.42c-.82,0-1.56.06-2.2.06l-3.44,17.15Z"/>
  <path class="st8" d="M271.75,205.2c-1.93,2.69-4.16,5.14-6.66,7.3-2.08,1.82-4.45,3.29-7,4.35-2.18.9-4.51,1.37-6.87,1.4-2.12.03-4.21-.49-6.07-1.51-1.93-1.1-3.57-2.64-4.78-4.51-1.49-2.28-2.6-4.78-3.28-7.41-.87-3.37-1.29-6.83-1.23-10.31,0-6.74.94-13.45,2.79-19.93,1.72-6.25,4.37-12.2,7.84-17.67,3.12-4.96,7.2-9.25,12-12.62,4.48-3.14,9.83-4.81,15.3-4.78,1.71,0,3.39.37,4.95,1.07,1.55.7,2.94,1.73,4.08,3,1.2,1.39,2.13,3,2.74,4.73.7,2,1.04,4.11,1,6.23v1.34c0,.49-.04.97-.11,1.45l-14.07,3.76c-.86-1.79-1.87-2.68-3-2.68-1.42.14-2.73.87-3.6,2-1.43,1.57-2.67,3.3-3.7,5.16-1.31,2.3-2.5,4.66-3.55,7.09-1.15,2.61-2.15,5.25-3,7.89s-1.55,5.18-2.09,7.58c-.48,1.92-.75,3.88-.81,5.85,0,2.29.31,3.91.92,4.83.49.87,1.41,1.41,2.41,1.4.96-.05,1.89-.37,2.69-.91,1.04-.65,1.98-1.44,2.79-2.36.89-1.01,1.68-2.11,2.36-3.28.68-1.13,1.19-2.36,1.51-3.65l12.24,4.94c-1.55,3.62-3.5,7.06-5.8,10.25h0Z"/>
  <path class="st8" d="M309.72,216.85l-5.8,1c.28-2.37.57-4.69.86-7,.21-2,.41-4,.59-6s.34-3.72.48-5.16h-9.34l-4.3,15.47c-1.58.22-3.44.45-5.59.7l-6,.7-6.77.86c2.86-9.53,5.69-18.91,8.49-28.15l3.59-12.13c1.26-4.23,2.51-8.44,3.76-12.62s2.45-8.21,3.6-12.09c1.15-3.87,2.15-7.42,3-10.63,4.87-.36,9.83-.79,14.88-1.29s9.97-1.17,14.77-2c-.22,2.29-.45,5.14-.7,8.54s-.48,7.1-.7,11.11c-.21,4-.43,8.19-.64,12.57-.21,4.38-.43,8.68-.65,12.89-.36,9.88-.75,20.37-1.18,31.48-2.15.35-4.3.64-6.44.85l-5.91.9ZM299.08,188.92h1.56l2.36-.11,2.31-.11c.51,0,1.01-.06,1.51-.16,0-.43.05-1.16.16-2.2s.21-2.22.32-3.54.23-2.78.38-4.35.28-3.12.43-4.62c.28-3.66.64-7.59,1.07-11.82l.64-9.34-1.61.1-2.47,9.23-6.66,26.92h0Z"/>
  <path class="st8" d="M319.38,217.39c3.16-9.53,6.16-18.86,9-28,1.21-3.87,2.46-7.92,3.76-12.14s2.59-8.42,3.86-12.6c1.29-4.16,2.49-8.16,3.6-12,1.11-3.84,2.11-7.42,3-10.75,3.73,0,7.46-.2,11.17-.64,3.51-.43,7.3-.82,11.38-1.18-.21,1.57-.44,3.35-.69,5.31s-.54,4-.86,6.18l-1,6.66c-.36,2.29-.79,5.23-1.29,8.81s-1.17,8.06-2,13.43h1.39c2.08-5.44,3.8-9.97,5.16-13.59l3.33-8.86c.86-2.29,1.73-4.53,2.63-6.72s1.75-4.26,2.58-6.23,1.59-3.7,2.31-5.21c1.79-.14,3.47-.32,5.05-.53s3.15-.45,4.72-.7l4.78-.75c1.61-.25,3.39-.56,5.32-.92-.72,4.16-1.39,8.42-2,12.79s-1.19,8.72-1.72,13.05c-.5,4.33-.98,8.6-1.45,12.83s-.88,8.23-1.24,12c-.85,8.88-1.6,17.55-2.25,26l-18.8,3.37c0-.36.05-1.33.16-2.9s.25-3.51.43-5.8.43-4.84.75-7.63.65-5.58,1-8.38.66-5.49,1-8.11.71-4.85,1.07-6.71h-1c-1.01,3.01-2.12,6.17-3.33,9.5s-2.45,6.71-3.71,10.16c-1.25,3.43-2.48,6.8-3.71,10.09s-2.3,6.45-3.22,9.46c-2.51.07-4.65.16-6.44.26l-6.23.38,3.43-39.85h-1.61c-.14.93-.5,2.49-1.07,4.67l-2,7.52c-.75,2.83-1.55,5.76-2.42,8.81-.85,3-1.66,5.87-2.41,8.48s-1.38,4.77-1.88,6.45-.79,2.63-.86,2.85l-17.69,1.14h0Z"/>
  <path class="st8" d="M388.77,218.14c2.15-9.67,4.2-19.12,6.13-28.36.78-3.86,1.61-7.95,2.47-12.24s1.68-8.53,2.47-12.68,1.54-8.16,2.25-12,1.33-7.41,1.83-10.63c2.08-.65,4.12-1.2,6.12-1.67s4.07-.87,6.18-1.23c1.98-.35,3.99-.53,6-.54,2.79-.09,5.56.46,8.11,1.61,2.1,1,3.92,2.49,5.32,4.35,1.39,1.91,2.38,4.08,2.9,6.39.59,2.57.88,5.2.86,7.84,0,3.97-.74,7.91-2.2,11.6-1.41,3.62-3.4,6.98-5.91,9.94-2.37,2.82-5.25,5.17-8.49,6.93-3.04,1.68-6.46,2.57-9.93,2.58h-1.19c-.57,2.43-1.11,5.08-1.61,7.95s-.93,5.51-1.29,7.94c-.5,2.87-1,5.73-1.39,8.6l-18.63,3.62h0ZM416.38,165.14c-.79,4.23-1.65,8.74-2.58,13.54,1.33-.39,2.56-1.07,3.6-2,1.37-1.17,2.54-2.55,3.49-4.08,1.14-1.82,2.01-3.79,2.58-5.86.66-2.27,1-4.63,1-7,0-2.67-.59-4.67-1.78-6-.94-1.22-2.38-1.95-3.92-2-.81,4.73-1.61,9.21-2.39,13.44v-.04h0Z"/>
  <path class="st8" d="M470.25,207.51c-1.71,2.73-3.89,5.13-6.45,7.08-2.37,1.82-5.04,3.2-7.89,4.09-2.71.85-5.54,1.28-8.38,1.29-1.7-.02-3.38-.29-5-.81-1.68-.51-3.24-1.33-4.62-2.42-1.4-1.11-2.55-2.5-3.38-4.08-.93-1.79-1.39-3.78-1.34-5.8v-.86c0-.29.03-.58.1-.86.29-2.93.75-6.47,1.4-10.63s1.31-8.49,2-13c.72-4.51,1.51-9.04,2.37-13.59s1.63-8.69,2.3-12.4c.68-3.73,1.28-6.82,1.78-9.3s.82-4,1-4.56c1.51-.14,3.3-.32,5.37-.54,2.08-.21,4-.39,5.81-.54l6.55-.64c-1.87,8.67-3.52,16.51-4.94,23.52-.67,3.01-1.29,6.01-1.88,9-.61,3-1.19,5.76-1.72,8.27s-1,4.67-1.4,6.5-.71,3.31-1,4.46-.53,2.59-.85,4.35c-.31,1.57-.48,3.17-.49,4.78-.04,1.02.27,2.02.86,2.84.49.71,1.29,1.13,2.15,1.13,1.17.02,2.29-.52,3-1.45.84-1.05,1.52-2.23,2-3.49.53-1.34.93-2.72,1.19-4.14.25-1.39.48-2.48.69-3.27.43-2.08.92-4.39,1.45-6.93s1.08-5.19,1.62-7.95,1.07-5.57,1.61-8.43,1.05-5.66,1.55-8.38c1.22-6.3,2.4-12.82,3.55-19.55l16.33-1.07c-.72,3.72-1.37,7.12-1.94,10.2s-1.2,6.59-1.88,10.53c-.67,3.94-1.44,8.04-2.31,12.3-.87,4.26-1.71,8.45-2.52,12.56-.82,4.12-1.63,7.9-2.42,11.34-.84,3.69-2.28,7.22-4.27,10.45h0Z"/>
  <path class="st8" d="M520.09,202.4c-1.5,3.2-3.61,6.07-6.23,8.44-2.69,2.41-5.83,4.27-9.24,5.47-3.67,1.31-7.54,1.97-11.44,1.94-3.01-.04-5.96-.83-8.59-2.31-3.23-1.86-6.05-4.36-8.27-7.36l7.95-15.58c.6,1.06,1.36,2.02,2.25,2.85,1.02.98,2.16,1.83,3.39,2.53,1.2.69,2.46,1.28,3.76,1.77,1.08.43,2.22.66,3.38.7.91,0,1.81-.16,2.68-.43.92-.29,1.8-.72,2.58-1.29.75-.54,1.39-1.22,1.88-2,.48-.79.72-1.7.7-2.63,0-1.73-.59-3.42-1.66-4.78-1.2-1.56-2.59-2.97-4.14-4.19-1.65-1.33-3.44-2.67-5.37-4-1.87-1.31-3.65-2.74-5.32-4.3-1.6-1.47-2.99-3.15-4.13-5-1.15-1.87-1.75-4.03-1.72-6.23,0-3.73,1.17-7.38,3.33-10.42,2.25-3.26,5.07-6.08,8.32-8.33,3.36-2.34,7.03-4.2,10.91-5.53,3.59-1.28,7.36-1.96,11.17-2,1.85,0,3.69.22,5.47.7,1.63.42,3.15,1.19,4.46,2.25,1.27,1.07,2.3,2.41,3,3.92.81,1.86,1.19,3.88,1.13,5.91,0,1.01-.09,2.01-.27,3-.18,1-.34,2.08-.48,3.22l-15.59,4.42c.14-.57.27-1.14.38-1.72.1-.56.16-1.14.16-1.71.13-1.64-.26-3.28-1.13-4.68-.69-.93-1.79-1.47-2.95-1.45-.74.05-1.46.27-2.1.65-.88.47-1.71,1.02-2.47,1.66-.83.69-1.53,1.5-2.09,2.42-.57.9-.87,1.94-.86,3-.06,1.56.46,3.08,1.45,4.29,1.05,1.23,2.26,2.32,3.6,3.23,1.43,1,3,2,4.67,3.06,1.75,1.09,3.32,2.44,4.67,4,1.54,1.84,2.76,3.93,3.6,6.18,1.06,3.02,1.55,6.2,1.45,9.4.07,3.77-.72,7.5-2.29,10.93Z"/>
  <path class="st9" d="M227.26,242.7c-17.5,3.65-35.22,2.4-51.77-4.01-8.46-3.28-16.72-7.33-24.98-11.22-7.17-3.37-13.22-7.57-17.57-15.82-17.62-33.35,4.64-81.21,25.43-106.12,12.04-14.44,26.23-25.28,41.6-31.79,4.34-1.84,1.75-10.04-2.57-8.22-30.26,12.83-56.78,42.94-70.28,80.73-7.33,20.51-10.42,44.64-2.81,64.59,3.36,8.8,8.43,16.09,15.15,20.67,8.07,5.51,17.38,8.83,26.04,12.68,20.01,8.88,41,11.93,62.57,7.43,4.48-.94,3.68-9.87-.8-8.94v.02h-.01Z"/>
  <circle class="st8" cx="231.28" cy="245.86" r="14.27" transform="translate(-48.46 434.76) rotate(-80.78)"/>
  <g class="st10">
    <text class="st11" transform="translate(267.24 261.46) rotate(18.36)"><tspan x="0" y="0">T</tspan></text>
    <text class="st11" transform="translate(278.1 265.11) rotate(11.98)"><tspan x="0" y="0">h</tspan></text>
    <text class="st11" transform="translate(291.04 267.83) rotate(6.08)"><tspan x="0" y="0">e</tspan></text>
    <text class="st11" transform="translate(303.81 269.08) rotate(1.7)"><tspan x="0" y="0"> </tspan></text>
    <text class="st11" transform="translate(310.62 269.4) rotate(-2.95)"><tspan x="0" y="0">F</tspan></text>
    <text class="st11" transform="translate(323.09 268.61) rotate(-6.29)"><tspan x="0" y="0">i</tspan></text>
    <text class="st11" transform="translate(326.78 268.22) rotate(-7.58)"><tspan x="0" y="0">r</tspan></text>
    <text class="st11" transform="translate(338.89 266.53) rotate(-11.16)"><tspan x="0" y="0">s</tspan></text>
    <text class="st11" transform="translate(353.7 263.58) rotate(-11.61)"><tspan x="0" y="0">t</tspan></text>
    <text class="st11" transform="translate(365.94 261.07) rotate(-11.79)"><tspan x="0" y="0"> </tspan></text>
    <text class="st11" transform="translate(372.59 259.65) rotate(-11.67)"><tspan x="0" y="0">S</tspan></text>
    <text class="st11" transform="translate(384.63 257.2) rotate(-10.74)"><tspan x="0" y="0">e</tspan></text>
    <text class="st11" transform="translate(397.23 254.76) rotate(-8.87)"><tspan x="0" y="0">m</tspan></text>
    <text class="st11" transform="translate(409.93 252.78) rotate(-5.72)"><tspan x="0" y="0">e</tspan></text>
    <text class="st11" transform="translate(422.7 251.47) rotate(-2.42)"><tspan x="0" y="0">s</tspan></text>
    <text class="st11" transform="translate(437.79 250.87) rotate(.87)"><tspan x="0" y="0">t</tspan></text>
    <text class="st11" transform="translate(450.29 251.07) rotate(4.67)"><tspan x="0" y="0">e</tspan></text>
    <text class="st11" transform="translate(463.07 252.16) rotate(6.16)"><tspan x="0" y="0">r</tspan></text>
  </g>
  <g class="st10">
    <text class="st4" transform="translate(265.11 260.58) rotate(18.36)"><tspan x="0" y="0">T</tspan></text>
    <text class="st4" transform="translate(275.97 264.23) rotate(11.98)"><tspan x="0" y="0">h</tspan></text>
    <text class="st4" transform="translate(288.91 266.96) rotate(6.08)"><tspan x="0" y="0">e</tspan></text>
    <text class="st4" transform="translate(301.68 268.2) rotate(1.7)"><tspan x="0" y="0"> </tspan></text>
    <text class="st4" transform="translate(308.48 268.52) rotate(-2.95)"><tspan x="0" y="0">F</tspan></text>
    <text class="st4" transform="translate(320.95 267.73) rotate(-6.29)"><tspan x="0" y="0">i</tspan></text>
    <text class="st4" transform="translate(324.65 267.34) rotate(-7.58)"><tspan x="0" y="0">r</tspan></text>
    <text class="st4" transform="translate(336.76 265.65) rotate(-11.16)"><tspan x="0" y="0">s</tspan></text>
    <text class="st4" transform="translate(351.56 262.7) rotate(-11.61)"><tspan x="0" y="0">t</tspan></text>
    <text class="st4" transform="translate(363.8 260.19) rotate(-11.79)"><tspan x="0" y="0"> </tspan></text>
    <text class="st4" transform="translate(370.46 258.77) rotate(-11.67)"><tspan x="0" y="0">S</tspan></text>
    <text class="st4" transform="translate(382.5 256.32) rotate(-10.74)"><tspan x="0" y="0">e</tspan></text>
    <text class="st4" transform="translate(395.1 253.89) rotate(-8.87)"><tspan x="0" y="0">m</tspan></text>
    <text class="st4" transform="translate(407.8 251.91) rotate(-5.72)"><tspan x="0" y="0">e</tspan></text>
    <text class="st4" transform="translate(420.57 250.6) rotate(-2.42)"><tspan x="0" y="0">s</tspan></text>
    <text class="st4" transform="translate(435.66 249.99) rotate(.87)"><tspan x="0" y="0">t</tspan></text>
    <text class="st4" transform="translate(448.15 250.19) rotate(4.67)"><tspan x="0" y="0">e</tspan></text>
    <text class="st4" transform="translate(460.94 251.28) rotate(6.16)"><tspan x="0" y="0">r</tspan></text>
  </g>
  <path class="st1" d="M221.91,237.86c-11.26-10.38-17.12-25.31-21.44-39.69-4.41-14.67-6.75-29.86-7.04-45.17-.57-30.43,6.92-60.67,21.99-87.13,3.19-5.6-5.45-10.64-8.63-5.05-16.19,28.42-24.24,61.15-23.32,93.83.45,16.15,3.03,32.33,7.84,47.76,4.82,15.45,11.41,31.35,23.53,42.52,4.73,4.36,11.82-2.7,7.07-7.07Z"/>
</svg>